<?xml version="1.0" encoding="UTF-8"?>
<svg version="1.1" xmlns="http://www.w3.org/2000/svg" width="1024" height="1024">
<path d="M0 0 C3.10752124 0.31448328 4.62815646 0.63124871 6.87890625 2.86328125 C14.73818978 14.29662412 17.35766194 25.28341544 16 39 C14.27664666 47.03551733 10.13559982 54.61428707 5 61 C2.78125 62.30859375 2.78125 62.30859375 1 63 C-0.70884005 61.37660195 -2.37446717 59.70680947 -4 58 C-4 57.34 -4 56.68 -4 56 C-4.66 56 -5.32 56 -6 56 C-6.62762455 54.77217138 -7.25196065 53.54266164 -7.875 52.3125 C-8.22304688 51.62800781 -8.57109375 50.94351563 -8.9296875 50.23828125 C-12.0596414 43.69279371 -12.36626257 38.44964045 -12.375 31.25 C-12.39949219 30.20328125 -12.42398437 29.1565625 -12.44921875 28.078125 C-12.48465844 18.62754093 -9.73769682 11.45900586 -4 4 C-3.34 4 -2.68 4 -2 4 C-1.34 2.68 -0.68 1.36 0 0 Z " fill="#000000" transform="translate(520,210)"/>
<path d="M0 0 C9.2644225 2.33888699 20.21028757 9.43098708 25.1875 17.6875 C31.53622246 29.41922376 32.49902213 39.55165026 32.1875 52.6875 C23.54176008 51.07558239 14.56087743 48.60308495 7.1875 43.6875 C7.1875 43.0275 7.1875 42.3675 7.1875 41.6875 C6.5275 41.6875 5.8675 41.6875 5.1875 41.6875 C5.1875 41.0275 5.1875 40.3675 5.1875 39.6875 C4.5275 39.6875 3.8675 39.6875 3.1875 39.6875 C3.1875 39.0275 3.1875 38.3675 3.1875 37.6875 C2.5275 37.6875 1.8675 37.6875 1.1875 37.6875 C-0.25 35.67578125 -0.25 35.67578125 -1.8125 33 C-2.328125 32.12988281 -2.84375 31.25976562 -3.375 30.36328125 C-3.849375 29.48027344 -4.32375 28.59726562 -4.8125 27.6875 C-5.19792969 26.97335937 -5.58335937 26.25921875 -5.98046875 25.5234375 C-7.29145215 21.05501521 -7.14069808 16.63093483 -7.125 12 C-7.14111328 11.03771484 -7.15722656 10.07542969 -7.17382812 9.08398438 C-7.17447266 8.16552734 -7.17511719 7.24707031 -7.17578125 6.30078125 C-7.17876221 5.46329346 -7.18174316 4.62580566 -7.18481445 3.76293945 C-7.06195068 3.07804443 -6.93908691 2.39314941 -6.8125 1.6875 C-3.8125 -0.3125 -3.8125 -0.3125 0 0 Z " fill="#000000" transform="translate(440.8125,242.3125)"/>
<path d="M0 0 C4.34586828 -0.39507893 6.32003497 -0.45331002 10 2 C10 2.66 10 3.32 10 4 C10.58652344 4.24105469 11.17304688 4.48210937 11.77734375 4.73046875 C17.02318531 7.72677544 20.13755527 13.58455166 22.1171875 19.12890625 C23.96708692 26.44922254 24.36597193 33.47724369 24 41 C19.42410709 40.43986245 16.01923808 38.4760251 12.1875 36.0625 C11.59001953 35.70220703 10.99253906 35.34191406 10.37695312 34.97070312 C8.87870985 34.04093616 7.43371436 33.02648071 6 32 C6 31.34 6 30.68 6 30 C5.34 30 4.68 30 4 30 C0.01026803 23.21745565 -2.28189284 18.4598339 -2.25 10.375 C-2.25515625 9.06273437 -2.2603125 7.75046875 -2.265625 6.3984375 C-2 3 -2 3 0 0 Z " fill="#000000" transform="translate(480,242)"/>
<path d="M0 0 C2.58604622 8.21449975 2.52948947 15.16227635 -1 23.125 C-5.36731655 31.11919724 -13.41146011 37.84397028 -22 41 C-22.99 40.67 -23.98 40.34 -25 40 C-24.69938762 28.8623114 -23.13623719 20.01911738 -18 10 C-17.34 10 -16.68 10 -16 10 C-15.34 8.68 -14.68 7.36 -14 6 C-13.34 6 -12.68 6 -12 6 C-12 5.34 -12 4.68 -12 4 C-7.9090934 0.68831371 -5.26371362 -0.50130606 0 0 Z " fill="#000000" transform="translate(564,242)"/>
<path d="M0 0 C2.4375 0.75 2.4375 0.75 5 2 C8.17923636 10.93675586 5.40235116 20.57865258 2 29 C-3.46906436 39.69541877 -11.87854428 45.90814365 -23 50 C-26.6417606 51.12506004 -30.29840028 52.09600721 -34 53 C-33.91818026 49.66573244 -33.80542926 46.33317031 -33.6875 43 C-33.66494141 42.06542969 -33.64238281 41.13085938 -33.61914062 40.16796875 C-33.29385262 31.71048058 -30.94319353 25.51084481 -27 18 C-26.34 18 -25.68 18 -25 18 C-24.7525 17.4225 -24.505 16.845 -24.25 16.25 C-22.81700012 13.67060021 -21.21575324 11.93878408 -19 10 C-18.34 10 -17.68 10 -17 10 C-17 9.34 -17 8.68 -17 8 C-14 6 -14 6 -11 6 C-11 5.34 -11 4.68 -11 4 C-10.28972656 3.79503906 -9.57945312 3.59007812 -8.84765625 3.37890625 C-7.92855469 3.10949219 -7.00945313 2.84007812 -6.0625 2.5625 C-5.14597656 2.29566406 -4.22945312 2.02882812 -3.28515625 1.75390625 C-1.0597507 1.20973949 -1.0597507 1.20973949 0 0 Z " fill="#000000" transform="translate(605,242)"/>
<path d="M0 0 C11.23552568 3.80865277 20.01931672 9.60618739 25.625 20.375 C29.05398202 27.67541334 29.96976918 34.23330866 29.8125 42.1875 C29.80347656 43.06212891 29.79445313 43.93675781 29.78515625 44.83789062 C29.7617957 46.97538064 29.72593247 49.11272786 29.6875 51.25 C18.63969838 49.7561665 7.21999754 44.5357473 -0.3125 36.25 C-0.88097656 35.6621875 -1.44945312 35.074375 -2.03515625 34.46875 C-10.24484884 25.68385602 -13.00884207 15.94089934 -13.42578125 4.0078125 C-13.3125 1.25 -13.3125 1.25 -12.25 -0.6875 C-8.37839227 -2.81063972 -4.08744005 -0.92545812 0 0 Z " fill="#000000" transform="translate(413.3125,275.75)"/>
<path d="M0 0 C3.25696479 0.41755959 4.63443291 0.63443291 7 3 C7.66764334 15.42843757 3.90567184 26.47610662 -4.0625 35.97265625 C-12.69763217 45.00820785 -23.2565871 49.34221566 -35 53 C-37 51 -37 51 -37.265625 48.53125 C-37.19625897 35.07424105 -34.79309397 23.58047911 -25.4921875 13.33984375 C-23.51652511 11.56588511 -21.55464173 10.67622869 -19 10 C-19 9.34 -19 8.68 -19 8 C-7.92595083 1.45169245 -7.92595083 1.45169245 -1 1 C-0.67 0.67 -0.34 0.34 0 0 Z " fill="#000000" transform="translate(637,274)"/>
<path d="M0 0 C0.99 0 1.98 0 3 0 C9.52375994 8.7177193 12.8711629 17.18450239 11.61328125 28.05078125 C10.18303364 34.9287236 7.42784759 41.52345166 3 47 C-0.29142237 45.62740684 -1.79419953 44.29739691 -3.625 41.25 C-4.02976562 40.59515625 -4.43453125 39.9403125 -4.8515625 39.265625 C-8.81456605 31.44745473 -9.46893337 22.59557608 -7.2421875 14.11328125 C-5.31080692 9.14796031 -2.76634291 4.54470621 0 0 Z " fill="#000000" transform="translate(520,276)"/>
<path d="M0 0 C7.94056521 2.56900639 12.24800829 7.86553092 16 15 C19.134551 22.05273975 19.35878477 29.94323564 18.375 37.5 C17.77466473 42.66584796 18.69649946 46.68126967 20.30859375 51.58984375 C21 54 21 54 21 58 C17.2604639 56.54883674 16.12515102 54.89143412 14.3125 51.375 C11.53225161 46.44184132 8.28095108 43.27311057 3.85546875 39.7890625 C1.83671296 37.84255692 1.36785924 36.73783762 1 34 C0.34 34 -0.32 34 -1 34 C-4.24088288 27.98121751 -5.40635039 22.50323603 -5.4375 15.75 C-5.44716797 15.07710938 -5.45683594 14.40421875 -5.46679688 13.7109375 C-5.37311533 8.13413002 -3.96494787 3.96494787 0 0 Z " fill="#000000" transform="translate(487,286)"/>
<path d="M0 0 C0.78375 0.04125 1.5675 0.0825 2.375 0.125 C6.37421756 9.67670266 8.0547519 17.06351684 4.33984375 26.94140625 C1.77209284 32.752632 -1.38091057 37.00728959 -6 41.375 C-11.12224969 46.27417014 -14.34455245 51.89109485 -17.625 58.125 C-18.285 57.795 -18.945 57.465 -19.625 57.125 C-19.80187872 53.58742566 -19.55927301 50.88711885 -18.609375 47.44921875 C-17.45816114 43.01841952 -17.55681599 38.97905352 -17.75 34.4375 C-17.92822684 23.54212364 -16.44073468 14.83678344 -9 6.4375 C-7.56282869 4.97884274 -6.1083057 3.53671759 -4.625 2.125 C-2.625 0.125 -2.625 0.125 0 0 Z " fill="#000000" transform="translate(555.625,285.875)"/>
<path d="M0 0 C7.95153017 2.95342549 13.16018288 11.76284689 16.77734375 18.98828125 C22.00100926 31.14655198 21.98561639 40.68388374 18.74609375 53.3828125 C17.8013035 59.18369252 18.45889166 63.08706092 21.77734375 67.90625 C22.88098395 69.38422332 23.99753299 70.8526216 25.125 72.3125 C26.30685625 73.89421516 27.48651135 75.47757718 28.6640625 77.0625 C29.25477539 77.85269531 29.84548828 78.64289063 30.45410156 79.45703125 C33.06870648 83.0099479 35.5503505 86.64457561 38 90.3125 C38.42595459 90.94091797 38.85190918 91.56933594 39.29077148 92.21679688 C42.1875 96.56825675 42.1875 96.56825675 42.1875 98.8125 C42.8475 98.8125 43.5075 98.8125 44.1875 98.8125 C45.54926581 100.79325027 46.88343116 102.79329663 48.1875 104.8125 C48.5175 104.8125 48.8475 104.8125 49.1875 104.8125 C49.82292335 93.57595155 49.82292335 93.57595155 47.1875 82.8125 C44.47998108 80.64567376 44.47998108 80.64567376 41.1875 78.8125 C34.95273792 72.60366208 32.03364246 68.21956964 31.4375 59.3125 C31.29054688 57.34796875 31.29054688 57.34796875 31.140625 55.34375 C31.18434175 52.05042172 31.40183488 50.50473357 33.1875 47.8125 C35.4975 48.1425 37.8075 48.4725 40.1875 48.8125 C40.1875 49.4725 40.1875 50.1325 40.1875 50.8125 C40.785625 50.90789062 41.38375 51.00328125 42 51.1015625 C46.14618286 52.44907193 48.01985788 56.21724412 50.1875 59.8125 C53.59311176 66.54632325 54.60896511 73.3248026 55.33129883 80.74389648 C56.00550076 87.19758233 57.22767469 93.47854102 58.625 99.8125 C58.8305249 100.78678955 59.0360498 101.7610791 59.24780273 102.76489258 C59.55633179 104.11877075 59.55633179 104.11877075 59.87109375 105.5 C60.05212646 106.30824219 60.23315918 107.11648438 60.41967773 107.94921875 C60.79974976 108.87154297 60.79974976 108.87154297 61.1875 109.8125 C62.1775 110.1425 63.1675 110.4725 64.1875 110.8125 C64.94694051 107.55775494 65.30886546 104.38563004 65.5625 101.0625 C65.96466277 96.75361321 66.97356652 93.07083601 68.42578125 89.01171875 C70.46413358 83.1266297 71.24740056 77.45889133 71.5625 71.25 C72.04879197 64.06461687 73.8308954 59.5512567 78.5 54.125 C86.99831081 46.8125 86.99831081 46.8125 92.1875 46.8125 C94.68854421 55.55598789 93.56458473 63.90681157 89.1875 71.8125 C86.12130818 76.27317905 82.96868641 79.2169988 78.1875 81.8125 C75.04485819 88.09778363 76.07201642 96.94764282 76.1875 103.8125 C77.5075 103.4825 78.8275 103.1525 80.1875 102.8125 C80.331875 102.19375 80.47625 101.575 80.625 100.9375 C81.1875 98.8125 81.1875 98.8125 82.1875 96.8125 C82.8475 96.8125 83.5075 96.8125 84.1875 96.8125 C84.331875 96.19375 84.47625 95.575 84.625 94.9375 C85.1875 92.8125 85.1875 92.8125 86.1875 90.8125 C86.8475 90.8125 87.5075 90.8125 88.1875 90.8125 C88.8475 88.8325 89.5075 86.8525 90.1875 84.8125 C90.8475 84.8125 91.5075 84.8125 92.1875 84.8125 C92.3421875 83.94625 92.3421875 83.94625 92.5 83.0625 C93.29646465 80.45588842 94.37815277 78.8389689 96.1875 76.8125 C96.8475 76.8125 97.5075 76.8125 98.1875 76.8125 C98.331875 76.19375 98.47625 75.575 98.625 74.9375 C99.1875 72.8125 99.1875 72.8125 100.1875 70.8125 C100.8475 70.8125 101.5075 70.8125 102.1875 70.8125 C102.87370031 69.48911368 103.53536461 68.15300052 104.1875 66.8125 C104.579375 66.090625 104.97125 65.36875 105.375 64.625 C106.66642375 60.15468701 106.28722642 55.01195283 104.1875 50.8125 C102.27522832 35.1956146 103.33953752 24.08444372 112.1875 10.8125 C112.8475 10.8125 113.5075 10.8125 114.1875 10.8125 C114.3525 10.11125 114.5175 9.41 114.6875 8.6875 C116.87285165 4.49890933 120.33421162 2.42019051 124.1875 -0.1875 C126.88599979 0.82514457 127.99229051 1.46236235 129.41796875 4.01953125 C129.89169922 5.30923828 129.89169922 5.30923828 130.375 6.625 C130.69855469 7.47707031 131.02210938 8.32914062 131.35546875 9.20703125 C134.92469094 20.38389136 134.19431143 32.22287229 129.1875 42.8125 C126.56282542 47.20467695 123.43737784 51.17652389 120.33496094 55.23730469 C115.14752859 62.17771315 110.83616956 69.40152474 106.6875 77 C106.05585937 78.14275391 105.42421875 79.28550781 104.7734375 80.46289062 C103.23822063 83.2425636 101.70973074 86.02570109 100.1875 88.8125 C109.49747694 87.84810894 109.49747694 87.84810894 117.1875 82.8125 C117.69812455 81.43493595 118.14992488 80.03503614 118.5625 78.625 C119.93697702 74.26896512 121.79284991 70.69348463 124.1875 66.8125 C124.8475 66.8125 125.5075 66.8125 126.1875 66.8125 C127.1775 64.8325 127.1775 64.8325 128.1875 62.8125 C128.8475 62.8125 129.5075 62.8125 130.1875 62.8125 C130.1875 62.1525 130.1875 61.4925 130.1875 60.8125 C140.13485513 55.38666993 149.78700227 53.53200931 161.1875 54.8125 C164.109375 56.33203125 164.109375 56.33203125 166.1875 57.8125 C164.42270901 66.63645497 158.34965213 73.72001921 151.1875 78.8125 C145.87419356 82.2583682 140.25558183 83.71757439 134.1171875 85.1015625 C127.78291058 86.63868036 122.92572556 88.99226908 117.5 92.5 C116.44498291 93.17373657 116.44498291 93.17373657 115.36865234 93.86108398 C113.95720039 94.76245996 112.54701518 95.66582298 111.13818359 96.57128906 C109.45693502 97.64105975 107.75559381 98.67913314 106.05078125 99.7109375 C92.93140795 107.6836237 80.50169338 119.2696981 76.60546875 134.75 C75.56333611 142.38581298 75.40417329 150.11686251 75.1875 157.8125 C78.1575 156.8225 81.1275 155.8325 84.1875 154.8125 C84.1875 154.1525 84.1875 153.4925 84.1875 152.8125 C96.10048246 146.14122982 109.89941714 143.2484247 123.4375 142.375 C128.37784436 142.02943187 131.75584587 140.93600094 136.1875 138.8125 C137.5075 138.8125 138.8275 138.8125 140.1875 138.8125 C140.1875 138.1525 140.1875 137.4925 140.1875 136.8125 C143.1875 134.8125 143.1875 134.8125 146.1875 134.8125 C146.1875 134.1525 146.1875 133.4925 146.1875 132.8125 C146.8475 132.8125 147.5075 132.8125 148.1875 132.8125 C148.1875 132.1525 148.1875 131.4925 148.1875 130.8125 C149.69140625 129.33203125 149.69140625 129.33203125 151.75 127.625 C154.57746443 125.23137932 157.24246135 122.79278061 159.8125 120.125 C162.73717429 117.16026167 165.56132853 114.8728247 169.1875 112.8125 C170.1775 112.8125 171.1675 112.8125 172.1875 112.8125 C172.1875 112.1525 172.1875 111.4925 172.1875 110.8125 C175.80723402 109.49623308 178.28317131 108.8125 182.1875 108.8125 C182.1875 108.1525 182.1875 107.4925 182.1875 106.8125 C183.43641614 106.33051537 184.68668808 105.85204323 185.9375 105.375 C186.63359375 105.10816406 187.3296875 104.84132813 188.046875 104.56640625 C190.1875 103.8125 190.1875 103.8125 192.34765625 103.48046875 C194.36951124 102.97816935 194.36951124 102.97816935 195.19921875 100.921875 C195.42222656 100.14328125 195.64523437 99.3646875 195.875 98.5625 C196.23078125 97.35013672 196.23078125 97.35013672 196.59375 96.11328125 C197.21870875 93.6915661 197.78910467 91.28255108 198.1875 88.8125 C198.8475 88.8125 199.5075 88.8125 200.1875 88.8125 C200.331875 88.19375 200.47625 87.575 200.625 86.9375 C201.1875 84.8125 201.1875 84.8125 202.1875 82.8125 C202.8475 82.8125 203.5075 82.8125 204.1875 82.8125 C204.55875 81.94625 204.55875 81.94625 204.9375 81.0625 C206.37049988 78.48310021 207.97174676 76.75128408 210.1875 74.8125 C210.8475 74.8125 211.5075 74.8125 212.1875 74.8125 C212.1875 74.1525 212.1875 73.4925 212.1875 72.8125 C212.8475 72.8125 213.5075 72.8125 214.1875 72.8125 C214.1875 72.1525 214.1875 71.4925 214.1875 70.8125 C223.20857128 66.78139223 235.31448398 62.21320273 245.234375 65.48828125 C246.91466189 66.19736232 248.55626488 66.99688244 250.1875 67.8125 C247.45768099 80.03168985 240.09960411 90.48846732 229.6796875 97.5 C223.58937575 100.89293134 217.71418255 102.44433956 210.9375 103.6875 C201.36250693 105.46243686 193.54264807 108.80012012 185.1875 113.8125 C184.14174805 114.42287109 183.09599609 115.03324219 182.01855469 115.66210938 C173.08910349 121.02396423 166.14919542 127.3578579 159.0625 134.9375 C148.96917796 145.72782882 139.21084166 153.41512723 124.5625 157 C109.22611902 160.92565573 96.23253294 166.10805373 87.7109375 180.265625 C85.06698134 185.30614961 83.11674086 190.19529123 82.1875 195.8125 C81.96900391 197.00746094 81.96900391 197.00746094 81.74609375 198.2265625 C79.81606182 212.00089565 84.26350503 224.97439203 91.87890625 236.3359375 C96.65995701 241.46484812 101.08255573 244.05837144 108.18530273 244.4753418 C110.49692759 244.51483178 112.8091723 244.52543398 115.12109375 244.51171875 C116.35360367 244.51887405 117.58611359 244.52602936 118.85597229 244.53340149 C121.45386027 244.54116123 124.05181371 244.53620331 126.6496582 244.51928711 C130.60949594 244.50007522 134.56581645 244.53946714 138.52539062 244.58398438 C141.05729374 244.58427478 143.58920006 244.58113353 146.12109375 244.57421875 C147.29635117 244.58950119 148.47160858 244.60478363 149.68247986 244.62052917 C157.56206453 244.50965138 162.15094127 242.84602339 168.1875 237.8125 C169.39105363 236.89687286 170.59641275 235.98360675 171.8046875 235.07421875 C173.45604811 233.77700064 175.09961783 232.47043521 176.7421875 231.16210938 C179.22834526 229.21083412 181.16130558 227.82123147 184.1875 226.8125 C184.1875 226.1525 184.1875 225.4925 184.1875 224.8125 C184.8475 224.8125 185.5075 224.8125 186.1875 224.8125 C186.1875 224.1525 186.1875 223.4925 186.1875 222.8125 C186.8475 222.8125 187.5075 222.8125 188.1875 222.8125 C188.1875 222.1525 188.1875 221.4925 188.1875 220.8125 C188.8475 220.8125 189.5075 220.8125 190.1875 220.8125 C190.1875 220.1525 190.1875 219.4925 190.1875 218.8125 C190.8475 218.8125 191.5075 218.8125 192.1875 218.8125 C192.43242188 218.2659375 192.67734375 217.719375 192.9296875 217.15625 C194.46317345 214.29882276 196.33133392 211.88042258 198.3125 209.3125 C207.43423677 197.30057986 215.10945293 185.07939416 220.1875 170.8125 C220.6825 169.69875 221.1775 168.585 221.6875 167.4375 C223.19294506 163.7993411 224.34507089 160.18864135 225.43359375 156.41015625 C225.92311327 154.72346982 226.43495684 153.04304465 226.97265625 151.37109375 C229.8420668 142.38796424 231.14510836 133.53463994 231.625 124.125 C232.52270428 110.18920969 232.52270428 110.18920969 237.2109375 106.0078125 C241.02293539 103.36094353 244.85176478 101.45946656 249.1875 99.8125 C251.12019275 101.74519275 250.35648396 105.21000613 250.37841797 107.80615234 C250.34149019 139.61151989 243.16425919 168.73822193 228.1875 196.8125 C227.86523438 197.42367676 227.54296875 198.03485352 227.2109375 198.66455078 C214.72480079 222.15853667 194.31411768 245.74919116 170.1875 257.8125 C167.40906793 257.91490516 164.6554449 257.95587337 161.8765564 257.95294189 C160.5716396 257.95739858 160.5716396 257.95739858 159.24036086 257.9619453 C156.30785468 257.97065821 153.37538921 257.97214274 150.44287109 257.97363281 C148.34720776 257.97825926 146.25154528 257.98328368 144.15588379 257.98867798 C138.44903582 258.00182315 132.74219963 258.00825138 127.03533888 258.01268864 C123.47099237 258.01561674 119.90664911 258.01972111 116.34230423 258.02419281 C105.19371155 258.03787504 94.04512624 258.04753741 82.89652574 258.0513947 C70.02152405 258.05587348 57.14662863 258.07341004 44.27165926 258.1023953 C34.32507718 258.12401122 24.37852501 258.13409898 14.43191969 258.13543582 C8.4892841 258.13648417 2.54674831 258.14239803 -3.39586258 258.16025543 C-8.98873359 258.17673386 -14.58142978 258.17889263 -20.17431641 258.17011642 C-22.22536055 258.16934586 -24.27641407 258.17369134 -26.32743454 258.18357468 C-29.1317156 258.19629326 -31.93537748 258.19041766 -34.73965454 258.17999268 C-35.54765051 258.18804908 -36.35564647 258.19610548 -37.18812716 258.20440602 C-44.4071891 258.1418223 -50.51980089 256.24393919 -56.3125 251.75 C-56.9828125 251.24339844 -57.653125 250.73679687 -58.34375 250.21484375 C-58.8284375 249.75207031 -59.313125 249.28929687 -59.8125 248.8125 C-59.8125 248.1525 -59.8125 247.4925 -59.8125 246.8125 C-60.8953125 246.44125 -60.8953125 246.44125 -62 246.0625 C-65.08856582 244.68980408 -67.32261418 243.08896704 -69.8125 240.8125 C-69.8125 240.1525 -69.8125 239.4925 -69.8125 238.8125 C-70.4725 238.8125 -71.1325 238.8125 -71.8125 238.8125 C-71.8125 238.1525 -71.8125 237.4925 -71.8125 236.8125 C-72.4725 236.8125 -73.1325 236.8125 -73.8125 236.8125 C-73.8125 236.1525 -73.8125 235.4925 -73.8125 234.8125 C-74.4725 234.8125 -75.1325 234.8125 -75.8125 234.8125 C-75.8125 234.1525 -75.8125 233.4925 -75.8125 232.8125 C-76.4725 232.8125 -77.1325 232.8125 -77.8125 232.8125 C-77.8125 232.1525 -77.8125 231.4925 -77.8125 230.8125 C-78.4725 230.8125 -79.1325 230.8125 -79.8125 230.8125 C-81.7578125 228.6953125 -81.7578125 228.6953125 -83.9375 225.9375 C-84.66195312 225.03257812 -85.38640625 224.12765625 -86.1328125 223.1953125 C-87.8125 220.8125 -87.8125 220.8125 -87.8125 218.8125 C-88.4725 218.8125 -89.1325 218.8125 -89.8125 218.8125 C-91.8125 215.8125 -91.8125 215.8125 -91.8125 212.8125 C-92.4725 212.8125 -93.1325 212.8125 -93.8125 212.8125 C-95.3203125 210.94921875 -95.3203125 210.94921875 -96.9375 208.5 C-97.47632813 207.69949219 -98.01515625 206.89898437 -98.5703125 206.07421875 C-99.8125 203.8125 -99.8125 203.8125 -99.8125 200.8125 C-100.4725 200.8125 -101.1325 200.8125 -101.8125 200.8125 C-104.94705822 195.29405446 -107.96638867 189.90497433 -110.03515625 183.89453125 C-110.98384444 181.35357243 -112.14555749 178.94815535 -113.3125 176.5 C-115.52275428 171.73996443 -116.9936941 167.02224979 -118.234375 161.9296875 C-118.61594039 159.84377032 -118.61594039 159.84377032 -119.8125 158.8125 C-120.35119515 156.16879499 -120.84863565 153.53188641 -121.3125 150.875 C-122.07724372 145.69672235 -122.07724372 145.69672235 -123.8125 140.8125 C-124.02008661 138.35029216 -124.18637758 135.90389397 -124.3125 133.4375 C-124.48681769 128.6159127 -124.48681769 128.6159127 -125.32397461 123.88525391 C-125.87678587 121.53974287 -125.92559553 119.45540251 -125.91015625 117.046875 C-125.90693359 116.15742188 -125.90371094 115.26796875 -125.90039062 114.3515625 C-125.88782227 112.97097656 -125.88782227 112.97097656 -125.875 111.5625 C-125.87048828 110.62664062 -125.86597656 109.69078125 -125.86132812 108.7265625 C-125.84956918 106.42180959 -125.83313426 104.11718773 -125.8125 101.8125 C-123.67578125 101.07421875 -123.67578125 101.07421875 -120.8125 100.8125 C-117.91796875 102.39453125 -117.91796875 102.39453125 -115 104.625 C-113.53626953 105.71748047 -113.53626953 105.71748047 -112.04296875 106.83203125 C-111.30691406 107.48558594 -110.57085937 108.13914062 -109.8125 108.8125 C-109.8125 109.4725 -109.8125 110.1325 -109.8125 110.8125 C-109.1525 110.8125 -108.4925 110.8125 -107.8125 110.8125 C-107.73773438 112.11058594 -107.66296875 113.40867187 -107.5859375 114.74609375 C-105.1949387 149.86102276 -93.88609717 182.07698338 -72.0859375 209.75 C-69.8125 212.8125 -69.8125 212.8125 -69.8125 214.8125 C-69.1525 214.8125 -68.4925 214.8125 -67.8125 214.8125 C-67.8125 215.4725 -67.8125 216.1325 -67.8125 216.8125 C-67.1525 216.8125 -66.4925 216.8125 -65.8125 216.8125 C-65.8125 217.4725 -65.8125 218.1325 -65.8125 218.8125 C-65.1525 218.8125 -64.4925 218.8125 -63.8125 218.8125 C-63.07 219.740625 -62.3275 220.66875 -61.5625 221.625 C-58.35482739 225.51889113 -54.64105126 228.53049575 -50.6875 231.625 C-50.07745117 232.10493408 -49.46740234 232.58486816 -48.83886719 233.0793457 C-45.94482476 235.31403117 -43.1947045 237.35697418 -39.8125 238.8125 C-39.8125 239.4725 -39.8125 240.1325 -39.8125 240.8125 C-38.678125 241.121875 -37.54375 241.43125 -36.375 241.75 C-32.8125 242.8125 -32.8125 242.8125 -31.8125 243.8125 C-30.08489762 243.92182553 -28.35284228 243.96157896 -26.62182617 243.97363281 C-25.51365036 243.98324036 -24.40547455 243.9928479 -23.26371765 244.00274658 C-21.45288445 244.0091214 -21.45288445 244.0091214 -19.60546875 244.015625 C-17.75735344 244.02417511 -17.75735344 244.02417511 -15.87190247 244.03289795 C-13.25827905 244.04236621 -10.6446436 244.04888914 -8.03100586 244.05273438 C-5.3489017 244.05712474 -2.66711822 244.07103287 0.01489258 244.09375 C3.87070548 244.12415 7.72611199 244.13477634 11.58203125 244.140625 C12.78318069 244.1529718 13.98433014 244.1653186 15.22187805 244.17803955 C16.33951035 244.17503845 17.45714264 244.17203735 18.60864258 244.16894531 C19.59157791 244.17259094 20.57451324 244.17623657 21.5872345 244.17999268 C24.60209607 243.75390559 25.88193765 242.73049782 28.1875 240.8125 C28.8475 240.8125 29.5075 240.8125 30.1875 240.8125 C30.1875 240.1525 30.1875 239.4925 30.1875 238.8125 C30.8475 238.8125 31.5075 238.8125 32.1875 238.8125 C32.1875 238.1525 32.1875 237.4925 32.1875 236.8125 C32.8475 236.8125 33.5075 236.8125 34.1875 236.8125 C34.455625 236.090625 34.72375 235.36875 35 234.625 C36.1875 231.8125 36.1875 231.8125 37.625 229.53515625 C43.70120183 218.94737457 44.85968749 206.03036259 42.45703125 194.22265625 C40.64851958 187.77844937 38.28836581 183.05249521 34.1875 177.8125 C34.1875 176.8225 34.1875 175.8325 34.1875 174.8125 C33.5275 174.8125 32.8675 174.8125 32.1875 174.8125 C31.03125 173.4921875 31.03125 173.4921875 29.6875 171.6875 C21.35314381 161.74652093 8.75536483 158.93971307 -3.4375 156.4375 C-11.6873161 154.60975624 -19.67903236 150.73446876 -25.8125 144.8125 C-25.8125 144.1525 -25.8125 143.4925 -25.8125 142.8125 C-26.4725 142.8125 -27.1325 142.8125 -27.8125 142.8125 C-27.8125 142.1525 -27.8125 141.4925 -27.8125 140.8125 C-28.4725 140.8125 -29.1325 140.8125 -29.8125 140.8125 C-29.8125 140.1525 -29.8125 139.4925 -29.8125 138.8125 C-30.4725 138.8125 -31.1325 138.8125 -31.8125 138.8125 C-31.8125 138.1525 -31.8125 137.4925 -31.8125 136.8125 C-32.4725 136.8125 -33.1325 136.8125 -33.8125 136.8125 C-33.8125 136.1525 -33.8125 135.4925 -33.8125 134.8125 C-34.4725 134.8125 -35.1325 134.8125 -35.8125 134.8125 C-35.8125 134.1525 -35.8125 133.4925 -35.8125 132.8125 C-36.4725 132.8125 -37.1325 132.8125 -37.8125 132.8125 C-37.8125 132.1525 -37.8125 131.4925 -37.8125 130.8125 C-38.4725 130.8125 -39.1325 130.8125 -39.8125 130.8125 C-39.8125 130.1525 -39.8125 129.4925 -39.8125 128.8125 C-40.4725 128.8125 -41.1325 128.8125 -41.8125 128.8125 C-41.8125 128.1525 -41.8125 127.4925 -41.8125 126.8125 C-42.4725 126.8125 -43.1325 126.8125 -43.8125 126.8125 C-43.8125 126.1525 -43.8125 125.4925 -43.8125 124.8125 C-44.4725 124.8125 -45.1325 124.8125 -45.8125 124.8125 C-45.8125 124.1525 -45.8125 123.4925 -45.8125 122.8125 C-46.575625 122.52375 -47.33875 122.235 -48.125 121.9375 C-50.8125 120.8125 -50.8125 120.8125 -53.8125 118.8125 C-53.8125 118.1525 -53.8125 117.4925 -53.8125 116.8125 C-54.40184326 116.68343262 -54.99118652 116.55436523 -55.59838867 116.42138672 C-59.03506798 115.47629044 -62.02310311 113.65291969 -65.125 111.9375 C-72.31225346 107.9776207 -78.66390267 104.67010429 -87 104 C-95.79338785 102.97832534 -102.51770385 99.67569744 -109.8125 94.8125 C-109.8125 94.1525 -109.8125 93.4925 -109.8125 92.8125 C-110.4725 92.8125 -111.1325 92.8125 -111.8125 92.8125 C-111.8125 92.1525 -111.8125 91.4925 -111.8125 90.8125 C-112.4725 90.8125 -113.1325 90.8125 -113.8125 90.8125 C-113.8125 90.1525 -113.8125 89.4925 -113.8125 88.8125 C-114.4725 88.8125 -115.1325 88.8125 -115.8125 88.8125 C-115.8125 88.1525 -115.8125 87.4925 -115.8125 86.8125 C-116.4725 86.8125 -117.1325 86.8125 -117.8125 86.8125 C-119.8125 83.8125 -119.8125 83.8125 -119.8125 80.8125 C-120.4725 80.8125 -121.1325 80.8125 -121.8125 80.8125 C-124.8125 73.03283898 -124.8125 73.03283898 -124.8125 68.875 C-123.8125 66.8125 -123.8125 66.8125 -121.6796875 65.6640625 C-116.17843747 64.03017625 -110.44620304 65.23869691 -104.8125 65.8125 C-103.53375 65.915625 -102.255 66.01875 -100.9375 66.125 C-96.84462223 67.02543311 -93.45372109 68.77909082 -89.8125 70.8125 C-89.8125 71.4725 -89.8125 72.1325 -89.8125 72.8125 C-88.94431641 72.93818359 -88.94431641 72.93818359 -88.05859375 73.06640625 C-81.96800337 75.08954149 -77.78572504 82.42173219 -75 87.875 C-73.85770166 90.25540234 -72.90391036 92.39740707 -72.3359375 94.9765625 C-71.41076121 99.03792961 -70.38909753 100.44054978 -66.796875 102.7578125 C-61.91281992 105.34604125 -56.85269046 107.5154814 -51.625 109.3125 C-45.31040754 111.49937185 -38.13410509 115.64380288 -33.8125 120.8125 C-33.8125 121.4725 -33.8125 122.1325 -33.8125 122.8125 C-33.1525 122.8125 -32.4925 122.8125 -31.8125 122.8125 C-31.8125 123.4725 -31.8125 124.1325 -31.8125 124.8125 C-31.1525 124.8125 -30.4925 124.8125 -29.8125 124.8125 C-29.8125 125.4725 -29.8125 126.1325 -29.8125 126.8125 C-29.1525 126.8125 -28.4925 126.8125 -27.8125 126.8125 C-23.04505814 131.11482558 -23.04505814 131.11482558 -21.8125 134.8125 C-19.87631575 135.48406616 -19.87631575 135.48406616 -17.8125 135.8125 C-17.1525 136.1425 -16.4925 136.4725 -15.8125 136.8125 C-15.8125 137.4725 -15.8125 138.1325 -15.8125 138.8125 C-10.70055118 139.85698463 -5.56656373 140.78338524 -0.43164062 141.70703125 C4.9642627 142.70088135 4.9642627 142.70088135 7.1875 143.8125 C8.95650773 143.94407909 10.7280086 144.0428547 12.5 144.125 C24.12700572 145.04182482 34.00468215 149.37129962 44.1875 154.8125 C47.04014701 156.40832019 47.04014701 156.40832019 50.1875 156.8125 C48.86737006 138.78095811 48.86737006 138.78095811 41.1875 122.8125 C40.52621094 121.82378906 39.86492187 120.83507812 39.18359375 119.81640625 C30.96450464 108.0391426 20.49116344 101.10690793 8.203125 94.171875 C5.50611054 92.64413478 3.0560239 90.99490917 0.59765625 89.109375 C-2.68448638 86.70726095 -5.57652863 85.94174812 -9.625 85.3125 C-17.30869157 83.87897545 -23.34506354 81.12412431 -29.8125 76.8125 C-29.8125 76.1525 -29.8125 75.4925 -29.8125 74.8125 C-30.4725 74.8125 -31.1325 74.8125 -31.8125 74.8125 C-31.8125 74.1525 -31.8125 73.4925 -31.8125 72.8125 C-32.4725 72.8125 -33.1325 72.8125 -33.8125 72.8125 C-33.8125 72.1525 -33.8125 71.4925 -33.8125 70.8125 C-34.4725 70.8125 -35.1325 70.8125 -35.8125 70.8125 C-36.4725 68.8325 -37.1325 66.8525 -37.8125 64.8125 C-38.4725 64.8125 -39.1325 64.8125 -39.8125 64.8125 C-40.3075 61.3475 -40.3075 61.3475 -40.8125 57.8125 C-36.93243452 55.08713053 -34.34432123 54.44524978 -29.625 54.5625 C-28.57957031 54.57796875 -27.53414063 54.5934375 -26.45703125 54.609375 C-23.8125 54.8125 -23.8125 54.8125 -21.8125 55.8125 C-20.41862704 55.94024803 -19.02218188 56.04083242 -17.625 56.125 C-12.80467126 56.59299308 -9.82761141 58.16423503 -5.8125 60.8125 C-5.8125 61.4725 -5.8125 62.1325 -5.8125 62.8125 C-4.884375 63.18375 -4.884375 63.18375 -3.9375 63.5625 C-1.46181313 65.01878639 -0.86124998 66.19062506 0.1875 68.8125 C0.8475 68.8125 1.5075 68.8125 2.1875 68.8125 C5.53532974 74.05743326 7.13263949 78.69153309 8.1875 84.8125 C8.92355469 84.92207031 9.65960938 85.03164063 10.41796875 85.14453125 C20.11017135 86.71935413 20.11017135 86.71935413 24.1875 89.8125 C21.02491845 83.22500295 17.54146386 76.9076528 13.8046875 70.62890625 C12.47990552 68.32173764 11.33817567 66.04691311 10.25 63.625 C8.26131484 59.49399734 5.31296515 56.45572635 2.21875 53.11328125 C-5.38085441 44.50526779 -9.9034462 34.76420445 -9.78515625 23.12109375 C-9.10335808 15.28639546 -6.80745631 8.05031109 -3.8125 0.8125 C-1.8125 -0.1875 -1.8125 -0.1875 0 0 Z " fill="#000000" transform="translate(459.8125,301.1875)"/>
<path d="M0 0 C10.15295696 -0.76306148 16.45758264 1.6121068 24.25 8.125 C28.92120259 12.52782605 31.72279924 17.03183634 34 23 C34.53753906 24.35931641 34.53753906 24.35931641 35.0859375 25.74609375 C36.22892145 29.81492124 36.45390411 33.66889278 36.625 37.875 C36.68300781 39.050625 36.68300781 39.050625 36.7421875 40.25 C36.83566622 42.16631367 36.91888495 44.08312319 37 46 C31.40529923 45.47617886 27.07019545 44.01704798 22.0625 41.5 C21.3617334 41.14977783 20.6609668 40.79955566 19.93896484 40.4387207 C12.81084857 36.68066638 8.42832126 31.6424819 4 25 C4 24.01 4 23.02 4 22 C3.34 22 2.68 22 2 22 C0.00881759 17.02988327 -0.24845695 12.87666865 -0.125 7.625 C-0.11597656 6.88894531 -0.10695313 6.15289062 -0.09765625 5.39453125 C-0.07430144 3.5962112 -0.03843836 1.79806089 0 0 Z " fill="#000000" transform="translate(370,306)"/>
<path d="M0 0 C1.57549033 1.57549033 1.24617765 3.12386255 1.3125 5.3125 C1.22727429 13.79854594 -1.60787142 22.40962062 -7 29 C-7.4846875 29.61101562 -7.969375 30.22203125 -8.46875 30.8515625 C-12.71716878 35.67761716 -17.44828134 38.58619786 -23.125 41.4375 C-24.1464209 41.95062744 -24.1464209 41.95062744 -25.18847656 42.47412109 C-29.11654884 44.35214105 -32.62318441 45.51595965 -37 46 C-36.88576707 42.93675381 -36.75902148 39.87489086 -36.625 36.8125 C-36.57859375 35.51602539 -36.57859375 35.51602539 -36.53125 34.19335938 C-36.32654611 29.74104978 -36.06277067 26.05007413 -34 22 C-33.34 22 -32.68 22 -32 22 C-31.88011719 21.4225 -31.76023437 20.845 -31.63671875 20.25 C-30.19575519 15.15800608 -27.19468608 10.5073826 -22.8125 7.5 C-20 6 -20 6 -18 6 C-18 5.34 -18 4.68 -18 4 C-11.98367854 0.81405199 -6.86309569 -0.93448401 0 0 Z " fill="#000000" transform="translate(674,306)"/>
<path d="M0 0 C7.92273644 0.07073872 15.96421414 1.68851707 21.8125 7.25 C24.849869 10.59181391 27.10635204 13.89709609 29 18 C28.67 18.99 28.34 19.98 28 21 C10.87825431 20.47073429 10.87825431 20.47073429 4.41015625 14.54296875 C1.38046061 11.07418678 -0.8654433 7.92864597 -1.1875 3.3125 C-1 1 -1 1 0 0 Z " fill="#000000" transform="translate(415,330)"/>
<path d="M0 0 C1 2 1 2 0.28515625 4.171875 C-2.69998785 10.46642806 -5.66756181 14.84416195 -12 18 C-17.82392109 20.05728122 -22.91154411 21.61394169 -29 20 C-28.29445932 16.33118845 -26.72264494 13.29549466 -25 10 C-24.34 10 -23.68 10 -23 10 C-23 9.34 -23 8.68 -23 8 C-22.34 8 -21.68 8 -21 8 C-21 7.34 -21 6.68 -21 6 C-14.35345982 0.81245644 -8.17221399 -0.28674435 0 0 Z " fill="#000000" transform="translate(629,330)"/>
<path d="M0 0 C1.984375 0.171875 1.984375 0.171875 4 1 C8.56656766 7.59615328 9.13606845 14.12263279 8 22 C6.67891885 25.57926139 5.03632829 28.77823775 3 32 C-1.8105765 29.82237278 -3.16080073 26.98757721 -5.1875 22.1875 C-7.17043089 14.40830958 -5.90850343 8.87554253 -2 2 C-1.34 1.34 -0.68 0.68 0 0 Z " fill="#000000" transform="translate(520,331)"/>
<path d="M0 0 C10.45977492 -0.7622508 17.14636472 -0.18465998 26 6 C26 6.66 26 7.32 26 8 C26.61875 8.2475 27.2375 8.495 27.875 8.75 C30.35068687 10.20628639 30.95125002 11.37812506 32 14 C32.66 14 33.32 14 34 14 C36 17 36 17 36 20 C24.37433606 20.45590839 15.33626239 20.56478549 5.1875 14.25 C2.26652147 11.24556494 -0.5618285 7.98023679 -2 4 C-1.12890625 1.75 -1.12890625 1.75 0 0 Z " fill="#000000" transform="translate(364,350)"/>
<path d="M0 0 C-0.80771448 6.28468252 -4.40773351 9.87144771 -9 14 C-15.80056019 18.2528577 -21.68922392 20.15958458 -29.6875 20.0625 C-30.38939453 20.05798828 -31.09128906 20.05347656 -31.81445312 20.04882812 C-33.54300538 20.03706927 -35.27151365 20.01913454 -37 20 C-37.61328125 18.171875 -37.61328125 18.171875 -38 16 C-33.63629403 9.37920473 -26.32482104 3.09436317 -19 0 C-12.50209604 -1.25398147 -6.54520507 -0.78205575 0 0 Z " fill="#000000" transform="translate(682,350)"/>
<path d="M0 0 C7.20046608 2.35767473 12.27664609 6.21940554 16.89453125 12.22265625 C19.27920611 17.65441565 20.44194767 21.9329287 19.01953125 27.78515625 C11.32559048 25.84590479 3.60154229 23.65817281 -0.98046875 16.78515625 C-0.98046875 15.79515625 -0.98046875 14.80515625 -0.98046875 13.78515625 C-1.64046875 13.78515625 -2.30046875 13.78515625 -2.98046875 13.78515625 C-5.53261599 5.65018692 -5.53261599 5.65018692 -4.98046875 1.78515625 C-1.98046875 -0.21484375 -1.98046875 -0.21484375 0 0 Z " fill="#000000" transform="translate(398.98046875,378.21484375)"/>
<path d="M0 0 C-0.97006809 8.94804184 -3.16259023 15.76272002 -10.078125 21.8203125 C-15.1821777 25.51450449 -19.80852905 27.01722683 -26 28 C-27.38114148 24.43205117 -26.90922646 22.15961148 -25.5 18.75 C-21.95278888 11.38461025 -17.07076384 4.60390576 -9.6875 0.8125 C-6.37571389 -0.18873766 -3.44018886 -0.13490937 0 0 Z " fill="#000000" transform="translate(651,378)"/>
<path d="M0 0 C9.16789018 -0.62746016 15.90954062 0.87630902 23.75 5.6875 C33.7642943 15.97996914 35.59309128 27.36126132 37 41 C33.37223155 42.30460135 32.03359731 42.01413278 28.40625 40.48828125 C27.09613034 39.77764059 25.79414673 39.05182937 24.5 38.3125 C23.84902344 37.95994141 23.19804687 37.60738281 22.52734375 37.24414062 C18.73121964 35.14668619 15.21862434 32.94008954 12 30 C12 29.34 12 28.68 12 28 C11.34 28 10.68 28 10 28 C8.5625 26.171875 8.5625 26.171875 7 23.75 C6.484375 22.96109375 5.96875 22.1721875 5.4375 21.359375 C1.27378974 14.52545924 -0.3308472 7.94033285 0 0 Z " fill="#000000" transform="translate(428,394)"/>
<path d="M0 0 C-0.30122918 12.37778067 -4.72301436 21.73352666 -13.3203125 30.5859375 C-19.72847205 36.3588859 -26.73187842 39.72327087 -35 42 C-36.72000629 40.27999371 -36.25403971 38.10071899 -36.3125 35.75 C-36.28705511 28.6932846 -34.38063093 22.58924631 -32 16 C-31.34 16 -30.68 16 -30 16 C-29.773125 15.46375 -29.54625 14.9275 -29.3125 14.375 C-25.71287144 7.86138641 -21.0413475 3.87969651 -14.3125 0.75 C-9.53854433 -0.33089562 -4.87307859 -0.15607725 0 0 Z " fill="#000000" transform="translate(616,394)"/>
<path d="M0 0 C5.51396483 0.50126953 10.73908615 2.85061105 14.7421875 6.65625 C20.77165011 13.97559764 22.52614685 22.70473906 22 32 C20.06126858 31.04416032 18.1240567 30.08523808 16.1875 29.125 C15.10855469 28.59132813 14.02960938 28.05765625 12.91796875 27.5078125 C10 26 10 26 7 24 C7 23.34 7 22.68 7 22 C6.34 22 5.68 22 5 22 C1.95094872 17.18053184 0.57740514 13.77405135 0 8 C-0.33 7.67 -0.66 7.34 -1 7 C-1.125 4 -1.125 4 -1 1 C-0.67 0.67 -0.34 0.34 0 0 Z " fill="#000000" transform="translate(469,408)"/>
<path d="M0 0 C0.74865753 7.819312 -0.4967481 13.50136045 -5 20 C-9.62489028 25.24614419 -14.35686718 27.98333468 -21 30 C-22 29 -22 29 -22.0546875 26.375 C-21.59918456 17.81946646 -20.31151242 11.47548493 -14.25390625 5.1875 C-9.66286486 1.08024577 -6.27961286 -1.7443369 0 0 Z " fill="#000000" transform="translate(575,409)"/>
<path d="M0 0 C10.39656147 0.09109802 20.30488081 4.58718903 28.1875 11.375 C28.1875 12.035 28.1875 12.695 28.1875 13.375 C19.11326665 17.69128356 9.42974575 19.93339448 -0.5078125 17.3125 C-6.0718964 15.04914384 -11.55988548 11.62761452 -15.8125 7.375 C-15.8125 6.385 -15.8125 5.395 -15.8125 4.375 C-15.1525 4.375 -14.4925 4.375 -13.8125 4.375 C-13.8125 3.715 -13.8125 3.055 -13.8125 2.375 C-12.1109375 2.1584375 -12.1109375 2.1584375 -10.375 1.9375 C-6.43047799 1.31468073 -4.19898441 0.12950604 0 0 Z " fill="#000000" transform="translate(375.8125,415.625)"/>
<path d="M0 0 C-2.26551133 5.54197665 -6.92608239 8.17358952 -12 11 C-20.45775172 14.31346183 -29.05314047 15.14363541 -37.6875 12.03125 C-39.83793896 11.09043296 -41.92738305 10.10027814 -44 9 C-43.1328125 7.046875 -43.1328125 7.046875 -42 5 C-39.875 4.25 -39.875 4.25 -38 4 C-38 3.34 -38 2.68 -38 2 C-26.26804502 -5.18282958 -12.44672761 -6.62711671 0 0 Z " fill="#000000" transform="translate(684,420)"/>
<path d="M0 0 C1.01320313 0.18691406 2.02640625 0.37382812 3.0703125 0.56640625 C11.72296171 2.32303457 19.8141704 4.41451634 25 12 C16.07989671 21.17496338 7.61101554 25.05838634 -5.1418457 25.42626953 C-18.45804271 25.4864942 -28.26287116 22.32944644 -40 16 C-39.43024019 12.69539312 -38.64759614 11.07864463 -36 9 C-33.90709207 7.91489074 -31.77695343 6.90021601 -29.625 5.9375 C-28.50351562 5.43089844 -27.38203125 4.92429687 -26.2265625 4.40234375 C-17.48940413 0.60495894 -9.57361493 -2.00416506 0 0 Z " fill="#000000" transform="translate(649,443)"/>
<path d="M0 0 C11.89921141 -0.48033514 23.19994677 3.45053909 32.94140625 10.1640625 C35.3125 12.890625 35.3125 12.890625 36.94140625 15.1640625 C21.10217935 23.60394252 6.00831829 28.70877519 -12.05859375 24.1640625 C-17.93942523 21.9637514 -23.24818814 19.24460331 -27.05859375 14.1640625 C-27.17578125 11.5078125 -27.17578125 11.5078125 -27.05859375 9.1640625 C-25.16404551 8.20319114 -23.26789794 7.24547281 -21.37109375 6.2890625 C-20.31535156 5.75539063 -19.25960938 5.22171875 -18.171875 4.671875 C-12.06719164 1.71527804 -6.7155812 0.53520761 0 0 Z " fill="#000000" transform="translate(399.05859375,442.8359375)"/>
<path d="M0 0 C1.1446875 0.12375 1.1446875 0.12375 2.3125 0.25 C2.9634259 1.49735567 3.60801669 2.74801832 4.25 4 C4.60964844 4.69609375 4.96929687 5.3921875 5.33984375 6.109375 C8.17212748 12.34267413 8.50227029 19.00009055 6.1484375 25.4296875 C3.52626542 30.92952536 1.32585408 34.64585107 -3.6875 38.25 C-9.69314765 29.64190504 -10.59578316 22.55846671 -9.6875 12.25 C-8.7158064 9.04293244 -7.56624597 7.09495818 -5.6875 4.25 C-5.213125 3.425 -4.73875 2.6 -4.25 1.75 C-2.6875 0.25 -2.6875 0.25 0 0 Z " fill="#000000" transform="translate(457.6875,465.75)"/>
<path d="M0 0 C3.68007508 0.10222431 4.93035804 0.93367433 7.625 3.5 C11.60254459 8.74483798 13.64229667 15.29233924 13.3515625 21.88671875 C12.39523637 27.6353014 10.47932531 32.58791675 6.25 36.625 C5.13625 37.305625 5.13625 37.305625 4 38 C3.03644756 36.92130607 2.07938583 35.83681257 1.125 34.75 C0.59132813 34.14671875 0.05765625 33.5434375 -0.4921875 32.921875 C-4.52349341 27.78352654 -6.36622944 21.10176968 -5.78515625 14.59375 C-4.82739288 9.97115656 -3.41719226 3.41719226 0 0 Z " fill="#000000" transform="translate(584,466)"/>
<path d="M0 0 C9.13636855 0.70279758 18.83682024 3.03068354 26 9 C26 9.66 26 10.32 26 11 C26.66 11 27.32 11 28 11 C28 11.66 28 12.32 28 13 C28.66 13 29.32 13 30 13 C35.64145609 19.79867785 37.36134206 27.32779064 37 36 C27.47053473 36.53715149 19.58361953 35.02800526 12 29 C12 28.34 12 27.68 12 27 C11.34 27 10.68 27 10 27 C4.00304224 20.80314365 0.18589334 11.11206677 -0.125 2.5625 C-0.08375 1.716875 -0.0425 0.87125 0 0 Z " fill="#000000" transform="translate(604,469)"/>
<path d="M0 0 C-0.72938584 11.30548051 -4.45125172 20.894296 -12.84765625 28.72265625 C-19.92904128 34.45252446 -26.98142633 36.4919222 -36 36 C-36.71465484 27.55648546 -36.21663417 21.88469297 -31.5078125 14.73046875 C-30.76144531 13.87388672 -30.76144531 13.87388672 -30 13 C-29.34 13 -28.68 13 -28 13 C-28 12.34 -28 11.68 -28 11 C-27.34 11 -26.68 11 -26 11 C-26 10.34 -26 9.68 -26 9 C-19.20679364 3.3389947 -8.81832686 0 0 0 Z " fill="#000000" transform="translate(440,469)"/>
<path d="M0 0 C39.551438 -0.11437467 79.10285449 -0.20251289 118.65442474 -0.25532665 C123.3208863 -0.26158039 127.98734753 -0.26805198 132.65380859 -0.2746582 C133.58284055 -0.27596976 134.5118725 -0.27728131 135.46905693 -0.2786326 C150.5237121 -0.30040573 165.57827207 -0.33983772 180.6328707 -0.38576398 C196.07337352 -0.43247562 211.51382638 -0.46028418 226.95439696 -0.47044247 C236.48672066 -0.47731264 246.01877533 -0.49903281 255.55101624 -0.53958233 C262.08230742 -0.56595542 268.61345896 -0.57401337 275.14479956 -0.56750689 C278.91652609 -0.56429546 282.68778161 -0.56931386 286.45942497 -0.59602737 C290.54400065 -0.62474689 294.6275661 -0.61497614 298.71221924 -0.60127258 C299.91065279 -0.61583679 301.10908635 -0.630401 302.34383607 -0.64540654 C310.3155855 -0.57268531 310.3155855 -0.57268531 313.7992363 2.34226704 C315 5 315 5 314.5 8.125 C312.89848965 11.1945615 311.92457352 12.2433478 309 14 C306.531753 14.37489682 306.531753 14.37489682 303.70603848 14.37473011 C302.62703854 14.38193665 301.54803861 14.3891432 300.4363417 14.39656812 C299.25162735 14.38919383 298.066913 14.38181955 296.84629822 14.3742218 C295.58726309 14.37819621 294.32822796 14.38217061 293.03104025 14.38626546 C289.53409607 14.39686753 286.03740694 14.38871364 282.54047382 14.37751496 C278.77016065 14.36868435 274.99988128 14.37711312 271.22956848 14.38337708 C263.84292731 14.39287351 256.45638371 14.38625801 249.06974977 14.37411413 C240.4726882 14.36050571 231.87564997 14.36213094 223.27858038 14.36424746 C207.94278026 14.36743854 192.60702658 14.3557625 177.27124023 14.33618164 C162.38027533 14.31717365 147.48936484 14.31009481 132.59838867 14.31567383 C116.39282858 14.32172738 100.18729243 14.32156259 83.98173434 14.310188 C82.25480147 14.30898067 80.52786861 14.30777468 78.80093575 14.30657005 C77.95119187 14.30596651 77.10144799 14.30536298 76.22595431 14.30474115 C70.22905791 14.30085699 64.23217041 14.30125754 58.23527336 14.3031559 C50.93088039 14.30527484 43.62653515 14.30007655 36.32215565 14.28554235 C32.5932193 14.27828343 28.86435257 14.27423404 25.13541031 14.27878571 C21.09911041 14.28359282 17.06300216 14.27297577 13.02671814 14.26069641 C11.24630053 14.2663654 11.24630053 14.2663654 9.42991489 14.27214891 C8.3535227 14.26631671 7.27713052 14.26048452 6.16812038 14.25447559 C5.23579694 14.25360882 4.3034735 14.25274204 3.34289783 14.251849 C1 14 1 14 -2 12 C-2.83902226 8.15448132 -3.25360525 5.76081574 -2 2 C-1.34 2 -0.68 2 0 2 C0 1.34 0 0.68 0 0 Z " fill="#000000" transform="translate(368,572)"/>
<path d="M0 0 C3.62493334 -0.05787784 7.24974857 -0.0935542 10.875 -0.125 C11.90753906 -0.14175781 12.94007813 -0.15851562 14.00390625 -0.17578125 C14.99003906 -0.18222656 15.97617188 -0.18867187 16.9921875 -0.1953125 C18.35899658 -0.21102295 18.35899658 -0.21102295 19.75341797 -0.22705078 C22 0 22 0 24 2 C23.43181818 7.56818182 23.43181818 7.56818182 22 9 C20.38916255 9.0991918 18.77404356 9.1307982 17.16015625 9.1328125 C16.17982422 9.13410156 15.19949219 9.13539063 14.18945312 9.13671875 C12.64161133 9.13091797 12.64161133 9.13091797 11.0625 9.125 C9.52045898 9.13080078 9.52045898 9.13080078 7.94726562 9.13671875 C6.96564453 9.13542969 5.98402344 9.13414062 4.97265625 9.1328125 C4.06781494 9.13168457 3.16297363 9.13055664 2.23071289 9.12939453 C0 9 0 9 -2 8 C-2 6.02 -2 4.04 -2 2 C-1.34 2 -0.68 2 0 2 C0 1.34 0 0.68 0 0 Z " fill="#000000" transform="translate(184,598)"/>
<path d="M0 0 C32.05222453 -0.09119161 64.10441225 -0.16200826 96.15673612 -0.20426132 C99.9382312 -0.20926432 103.71972601 -0.2144416 107.5012207 -0.21972656 C108.63049269 -0.22130043 108.63049269 -0.22130043 109.78257825 -0.22290608 C121.98292691 -0.24032554 134.1832004 -0.27187166 146.38350443 -0.30861118 C158.89614153 -0.34597784 171.4087392 -0.36822678 183.92142981 -0.37635398 C191.6464797 -0.38185067 199.37131717 -0.3992298 207.0963017 -0.43166587 C213.01339266 -0.45524977 218.93037377 -0.45783068 224.8475132 -0.45243073 C227.27961539 -0.45353525 229.71172529 -0.46154556 232.14377975 -0.4768219 C235.45360179 -0.49659976 238.76250039 -0.4919834 242.07234192 -0.48101807 C243.04412237 -0.49266943 244.01590281 -0.5043208 245.01713115 -0.51632524 C251.46765073 -0.45819688 251.46765073 -0.45819688 254.16344738 1.86209488 C255 4 255 4 254.3125 6.6875 C253 9 253 9 251 10 C249.61575699 10.09522926 248.22704389 10.12915396 246.83953094 10.13142776 C245.96244996 10.13526891 245.08536897 10.13911005 244.18170977 10.1430676 C243.21227167 10.14220112 242.24283357 10.14133463 241.24401855 10.14044189 C240.21874919 10.14341302 239.19347983 10.14638414 238.1371417 10.1494453 C234.67931031 10.15816201 231.22151341 10.15964303 227.76367188 10.16113281 C225.29374619 10.16575879 222.82382122 10.17078315 220.35389709 10.17617798 C213.62888778 10.18932299 206.90389204 10.19578706 200.17887306 10.20018864 C195.98272703 10.20294893 191.78658331 10.20718582 187.59043884 10.21169281 C175.98041173 10.2238854 164.37038647 10.23418553 152.76035309 10.2375679 C151.6454075 10.23789725 151.6454075 10.23789725 150.50793776 10.23823325 C149.39028052 10.23856067 149.39028052 10.23856067 148.25004435 10.2388947 C146.74010118 10.23933817 145.23015801 10.23978474 143.72021484 10.24023438 C142.97122616 10.2404558 142.22223748 10.24067723 141.45055217 10.24090537 C129.30463282 10.24485639 117.15877336 10.26231967 105.01287717 10.2855939 C92.55328506 10.3092773 80.09372306 10.32176833 67.63410807 10.32293582 C60.63420762 10.32385415 53.63438524 10.32964621 46.63450623 10.34775543 C40.05510183 10.36471657 33.47581994 10.36643171 26.89639091 10.35761642 C24.4751642 10.3568417 22.05392975 10.36124543 19.63272285 10.37107468 C16.34029495 10.38366206 13.04840443 10.37798982 9.75598145 10.36749268 C8.78654335 10.37554908 7.81710525 10.38360548 6.81829023 10.39190602 C5.50266875 10.38202126 5.50266875 10.38202126 4.16046906 10.3719368 C3.39983422 10.37253389 2.63919938 10.37313097 1.855515 10.37374616 C0 10 0 10 -2 7 C-2.125 4.3125 -2.125 4.3125 -2 2 C-1.34 2 -0.68 2 0 2 C0 1.34 0 0.68 0 0 Z " fill="#000000" transform="translate(400,598)"/>
<path d="M0 0 C0.91120605 0.01047363 1.82241211 0.02094727 2.76123047 0.03173828 C3.74736328 0.03818359 4.73349609 0.04462891 5.74951172 0.05126953 C7.29832031 0.07640625 7.29832031 0.07640625 8.87841797 0.10205078 C9.91869141 0.11107422 10.95896484 0.12009766 12.03076172 0.12939453 C14.60520889 0.15301331 17.17920009 0.18594929 19.75341797 0.22705078 C20.94091797 2.47705078 20.94091797 2.47705078 21.75341797 5.22705078 C20.67944336 7.51293945 20.67944336 7.51293945 18.75341797 9.22705078 C16.5168457 9.69702148 16.5168457 9.69702148 13.93701172 9.65283203 C12.54385742 9.64026367 12.54385742 9.64026367 11.12255859 9.62744141 C9.67139648 9.58393555 9.67139648 9.58393555 8.19091797 9.53955078 C7.21960938 9.52988281 6.24830078 9.52021484 5.24755859 9.51025391 C-1.90894519 9.3958692 -1.90894519 9.3958692 -4.24658203 8.22705078 C-4.37158203 5.35205078 -4.37158203 5.35205078 -4.24658203 2.22705078 C-2.24658203 0.22705078 -2.24658203 0.22705078 0 0 Z " fill="#000000" transform="translate(842.24658203125,597.77294921875)"/>
<path d="M0 0 C1.72246193 -0.00006798 1.72246193 -0.00006798 3.47972107 -0.00013733 C4.73030304 0.0152861 5.98088501 0.03070953 7.2693634 0.04660034 C8.60673545 0.05240108 9.94411363 0.05690996 11.28149414 0.06022644 C14.90537497 0.07326851 18.52885121 0.10546146 22.15256286 0.14193964 C25.94455397 0.17770755 29.73663251 0.19860446 33.52871704 0.22186279 C39.89323377 0.26337481 46.25754948 0.31764145 52.62190247 0.37911987 C59.9853842 0.45005962 67.34877607 0.49926553 74.71249598 0.53723538 C81.03369767 0.57038752 87.35473898 0.61514225 93.67579252 0.66967762 C97.4517971 0.70224941 101.2277163 0.73078201 105.00382042 0.74890518 C109.20849647 0.76986022 113.41256384 0.81514969 117.61701965 0.86300659 C118.87367432 0.86628464 120.13032898 0.86956268 121.42506409 0.87294006 C123.13483681 0.8982505 123.13483681 0.8982505 124.87915039 0.92407227 C126.37101002 0.9368304 126.37101002 0.9368304 127.89300823 0.94984627 C128.67051843 1.07958273 129.44802862 1.20931919 130.24909973 1.34298706 C132.24909973 4.34298706 132.24909973 4.34298706 132.06159973 6.34298706 C131.09403273 8.72469044 130.28131293 9.76067156 128.24909973 11.34298706 C125.7459631 11.71771717 125.7459631 11.71771717 122.70074463 11.71720886 C120.96978546 11.72773033 120.96978546 11.72773033 119.20385742 11.73846436 C117.93673416 11.73082062 116.6696109 11.72317688 115.36408997 11.71530151 C114.01715311 11.71772927 112.67021804 11.72144844 111.32328796 11.72636414 C107.66426107 11.73577815 104.00550143 11.72634408 100.34649539 11.71303201 C96.52106602 11.70172738 92.69565001 11.70582419 88.87020874 11.70777893 C82.44673793 11.70866211 76.02337261 11.69757559 69.59992981 11.6791687 C62.16709636 11.65799167 54.73441738 11.65449295 47.30155987 11.66073066 C40.1580103 11.66641926 33.01451529 11.66078521 25.87097359 11.64955711 C22.82754066 11.64490534 19.78414102 11.64403975 16.74070549 11.64614296 C13.15954993 11.64802243 9.57855227 11.63994847 5.99743271 11.62408257 C4.05123642 11.61779555 2.10501621 11.62135354 0.15881348 11.62515259 C-0.99233948 11.61806778 -2.14349243 11.61098297 -3.32952881 11.60368347 C-4.33407388 11.6016306 -5.33861895 11.59957773 -6.37360477 11.59746265 C-8.75090027 11.34298706 -8.75090027 11.34298706 -10.75090027 9.34298706 C-11.18840027 6.40548706 -11.18840027 6.40548706 -10.75090027 3.34298706 C-7.15500975 0.57302852 -4.48060067 -0.02809427 0 0 Z " fill="#000000" transform="translate(462.7509002685547,620.6570129394531)"/>
<path d="M0 0 C9.71683141 0.0809736 18.81000823 2.56882692 27.75 6.25 C27.75 6.91 27.75 7.57 27.75 8.25 C28.61625 8.4046875 28.61625 8.4046875 29.5 8.5625 C32.10661158 9.35896465 33.7235311 10.44065277 35.75 12.25 C35.75 12.91 35.75 13.57 35.75 14.25 C36.41 14.25 37.07 14.25 37.75 14.25 C46.4864646 23.63545912 51.51939856 36.47566991 51.09765625 49.29296875 C49.94519784 59.09533969 46.89977938 67.54350955 40.75 75.25 C40.28722656 75.87390625 39.82445312 76.4978125 39.34765625 77.140625 C31.2594728 87.44689754 19.46623968 91.86210433 6.8125 93.625 C-6.45434189 95.17801648 -19.16633707 91.79332777 -30.25 84.25 C-30.25 83.59 -30.25 82.93 -30.25 82.25 C-30.91 82.25 -31.57 82.25 -32.25 82.25 C-32.25 81.59 -32.25 80.93 -32.25 80.25 C-32.91 80.25 -33.57 80.25 -34.25 80.25 C-34.25 79.59 -34.25 78.93 -34.25 78.25 C-34.91 78.25 -35.57 78.25 -36.25 78.25 C-40.25 72.83823529 -40.25 72.83823529 -40.25 70.25 C-40.91 70.25 -41.57 70.25 -42.25 70.25 C-42.25 68.93 -42.25 67.61 -42.25 66.25 C-42.91 66.25 -43.57 66.25 -44.25 66.25 C-48.79145221 56.25880515 -48.61909626 42.37346666 -44.875 32.0625 C-43.50808952 28.70245896 -41.93638748 25.46216662 -40.25 22.25 C-39.59 22.25 -38.93 22.25 -38.25 22.25 C-38.15589844 21.66992188 -38.06179688 21.08984375 -37.96484375 20.4921875 C-35.73446557 13.49635649 -27.65389009 8.95208829 -21.64453125 5.4765625 C-17.78917071 3.50171224 -14.33163094 2.07602415 -10 1.6875 C-6.12852366 1.23582776 -4.03494839 0.06337615 0 0 Z M-20.25 29.25 C-24.81862051 36.04721588 -26.80073768 41.98893477 -26.25 50.25 C-25.41677203 53.31709684 -24.36281351 56.27480947 -23.25 59.25 C-22.92 60.24 -22.59 61.23 -22.25 62.25 C-21.59 62.25 -20.93 62.25 -20.25 62.25 C-19.87875 63.178125 -19.87875 63.178125 -19.5 64.125 C-18.04371361 66.60068687 -16.87187494 67.20125002 -14.25 68.25 C-14.25 68.91 -14.25 69.57 -14.25 70.25 C-6.63774883 74.87098716 1.01560631 75.24821642 9.75 74.25 C12.85561722 73.22364217 14.99091537 72.05185119 17.75 70.25 C17.75 69.59 17.75 68.93 17.75 68.25 C18.36875 68.0025 18.9875 67.755 19.625 67.5 C22.10068687 66.04371361 22.70125002 64.87187494 23.75 62.25 C24.41 62.25 25.07 62.25 25.75 62.25 C29.55087382 55.99795042 28.803764 47.52960419 28.6875 40.4375 C27.32813131 35.81564646 24.87937302 31.91061937 21.75 28.25 C21.09 28.25 20.43 28.25 19.75 28.25 C19.75 27.59 19.75 26.93 19.75 26.25 C5.92502624 17.88028616 -8.40017645 17.13086227 -20.25 29.25 Z " fill="#000000" transform="translate(662.25,651.75)"/>
<path d="M0 0 C10.34246211 -0.27133002 21.78232509 1.82798795 29.53125 9.12109375 C31.53125 12.12109375 31.53125 12.12109375 31.53125 15.49609375 C30.23792989 20.18437913 28.61362091 21.55071206 24.53125 24.12109375 C20.93174665 25.36707568 18.75091222 25.69124407 15.25 24.0546875 C14.4353125 23.60222656 13.620625 23.14976562 12.78125 22.68359375 C7.27415168 19.69187721 2.70865826 19.1381193 -3.46875 20.12109375 C-10.86318296 22.37954847 -16.41720272 25.84728856 -20.21875 32.68359375 C-23.71284154 40.24857925 -24.48663322 46.97258227 -21.84375 54.93359375 C-18.73847641 62.31910931 -14.36677463 67.02607972 -7.42578125 70.98046875 C-1.42868898 73.29374609 5.52368564 73.44956812 11.65234375 71.41796875 C15.34595746 69.24417116 17.16085682 66.07105055 18.53125 62.12109375 C18.14290632 59.47981847 18.14290632 59.47981847 17.53125 57.12109375 C15.86835938 57.17330078 15.86835938 57.17330078 14.171875 57.2265625 C12.70834852 57.25470724 11.24480561 57.28200667 9.78125 57.30859375 C9.05164063 57.33373047 8.32203125 57.35886719 7.5703125 57.38476562 C4.28170232 57.42961031 1.98008922 57.37860087 -0.90625 55.72265625 C-3.63080728 52.92998504 -4.39975282 50.96630922 -4.71875 47.05859375 C-4.46875 44.12109375 -4.46875 44.12109375 -2.46875 41.12109375 C-1.80875 41.12109375 -1.14875 41.12109375 -0.46875 41.12109375 C-0.46875 40.46109375 -0.46875 39.80109375 -0.46875 39.12109375 C4.74563043 39.02225735 9.95946643 38.94964169 15.17456055 38.90136719 C16.94874569 38.88124472 18.72286446 38.85394345 20.49682617 38.81933594 C23.04622767 38.77084383 25.59475295 38.74813222 28.14453125 38.73046875 C28.93837723 38.70982361 29.73222321 38.68917847 30.55012512 38.66790771 C33.73333814 38.66660904 35.93592109 38.67241371 38.52832031 40.6262207 C39.9660464 44.20268683 39.97926111 47.63337246 39.96484375 51.4296875 C39.9700856 52.233423 39.97532745 53.03715851 39.98072815 53.86524963 C39.98714095 55.5622543 39.98582092 57.25930346 39.97729492 58.95629883 C39.96878956 61.54654495 39.99754608 64.13458129 40.02929688 66.72460938 C40.03090922 68.37630142 40.03033072 70.02799736 40.02734375 71.6796875 C40.03857773 72.45066269 40.04981171 73.22163788 40.06138611 74.01597595 C40.01333625 77.74217414 39.67141433 79.90204278 37.64428711 83.07006836 C28.64949988 91.80088379 10.87349473 92.59407582 -1.06103516 92.47216797 C-11.65151162 92.14655237 -19.40185779 88.44746199 -28.46875 83.12109375 C-28.46875 82.46109375 -28.46875 81.80109375 -28.46875 81.12109375 C-29.12875 81.12109375 -29.78875 81.12109375 -30.46875 81.12109375 C-30.46875 80.46109375 -30.46875 79.80109375 -30.46875 79.12109375 C-31.78875 78.46109375 -33.10875 77.80109375 -34.46875 77.12109375 C-34.46875 76.46109375 -34.46875 75.80109375 -34.46875 75.12109375 C-35.12875 75.12109375 -35.78875 75.12109375 -36.46875 75.12109375 C-37.90625 73.109375 -37.90625 73.109375 -39.46875 70.43359375 C-39.984375 69.56347656 -40.5 68.69335938 -41.03125 67.796875 C-43.8011055 62.64102985 -44.8618585 58.270405 -45.15625 52.43359375 C-45.19387451 51.72315918 -45.23149902 51.01272461 -45.27026367 50.28076172 C-45.8678748 37.0369766 -43.25750365 25.51693378 -34.46875 15.12109375 C-33.80875 15.12109375 -33.14875 15.12109375 -32.46875 15.12109375 C-32.46875 14.46109375 -32.46875 13.80109375 -32.46875 13.12109375 C-31.80875 13.12109375 -31.14875 13.12109375 -30.46875 13.12109375 C-30.46875 12.46109375 -30.46875 11.80109375 -30.46875 11.12109375 C-21.48688243 3.52772745 -11.481494 0.56317455 0 0 Z " fill="#000000" transform="translate(472.46875,652.87890625)"/>
<path d="M0 0 C7.36736389 4.3006238 16.30347254 13.91041763 19 22 C19.66 22 20.32 22 21 22 C21.66 22.66 22.32 23.32 23 24 C30.9150695 16.68652162 30.9150695 16.68652162 37 8 C37.66 8 38.32 8 39 8 C39 7.34 39 6.68 39 6 C39.66 6 40.32 6 41 6 C41 5.34 41 4.68 41 4 C41.66 4 42.32 4 43 4 C43 3.34 43 2.68 43 2 C46.22438213 0.10643597 48.77484817 -0.35051156 52.5 -0.4375 C53.4384375 -0.47746094 54.376875 -0.51742187 55.34375 -0.55859375 C58 0 58 0 60.13267517 2.05114746 C62.43168267 5.68170707 62.57155881 8.57698926 62.53344727 12.74023438 C62.54637062 13.88508049 62.54637062 13.88508049 62.55955505 15.05305481 C62.58219197 17.56696834 62.57548135 20.07976514 62.56640625 22.59375 C62.57164258 24.34582856 62.5779191 26.09790429 62.58518982 27.84997559 C62.59558956 31.51844568 62.59103838 35.18652777 62.57641602 38.85498047 C62.55922161 43.55292023 62.58273306 48.2496377 62.61790562 52.9474411 C62.6398791 56.56435224 62.63843844 60.18097082 62.6301403 63.79792786 C62.62932089 65.52986492 62.63618252 67.26182349 62.65091133 68.99369812 C62.668359 71.41648247 62.65381634 73.83706918 62.63110352 76.25976562 C62.64864182 77.32908073 62.64864182 77.32908073 62.66653442 78.41999817 C62.59241542 82.31143749 62.09953585 83.87957038 59.58555603 86.92126465 C55.97191745 89.82655781 54.14199058 90.17702007 49.5625 90.25 C48.59441406 90.27578125 47.62632812 90.3015625 46.62890625 90.328125 C44 90 44 90 42.36271667 88.75895691 C40.64384953 86.54029085 40.60666617 85.31596463 40.56762695 82.52856445 C40.53793571 81.17750359 40.53793571 81.17750359 40.50764465 79.79914856 C40.50125473 78.83031235 40.49486481 77.86147614 40.48828125 76.86328125 C40.47033005 75.86870407 40.45237885 74.87412689 40.43388367 73.84941101 C40.37966984 70.6704839 40.34584917 67.49170787 40.3125 64.3125 C40.27933674 62.15818205 40.24484801 60.00388406 40.20898438 57.84960938 C40.12393728 52.56654173 40.05563442 47.28345479 40 42 C35.21782904 44.1536321 32.40038141 47.83330601 29.06640625 51.74414062 C27.17768537 53.89184124 25.46230961 55.74559813 22.94140625 57.1328125 C19.79241336 56.91738844 18.54512495 55.0556406 16.4375 52.8125 C15.67308594 52.01457031 14.90867188 51.21664062 14.12109375 50.39453125 C9 44.61325967 9 44.61325967 9 42 C7.515 41.505 7.515 41.505 6 41 C5.9906543 42.27641357 5.98130859 43.55282715 5.97167969 44.86791992 C5.93175661 49.61127402 5.86599097 54.35398112 5.79248047 59.09692383 C5.76428436 61.14827146 5.74306307 63.19972747 5.72900391 65.2512207 C5.70755576 68.20320054 5.66089552 71.1538793 5.609375 74.10546875 C5.60753204 75.47761787 5.60753204 75.47761787 5.60565186 76.87748718 C5.50896867 81.09671067 5.3695518 83.40968863 3.08691406 87.0559082 C-0.79660301 90.67364878 -4.23053263 90.32653447 -9.359375 90.29296875 C-12 90 -12 90 -14.625 88.125 C-17.14722324 84.22701863 -17.14813582 81.21330414 -17.14526367 76.67626953 C-17.14862228 75.92162415 -17.1519809 75.16697876 -17.15544128 74.38946533 C-17.16496357 71.88723111 -17.1668951 69.38506373 -17.16796875 66.8828125 C-17.17118069 65.14647392 -17.17454471 63.41013561 -17.17805481 61.67379761 C-17.18404945 58.03040947 -17.18589439 54.38704507 -17.18530273 50.74365234 C-17.18520115 46.07394302 -17.19884817 41.40438587 -17.21607494 36.7347126 C-17.22719176 33.14707744 -17.22922203 29.55947908 -17.22869301 25.97182846 C-17.2298738 24.25023754 -17.23430116 22.52864569 -17.24202538 20.80707169 C-17.25181789 18.39877921 -17.2489501 15.99081728 -17.24291992 13.58251953 C-17.24853943 12.87068512 -17.25415894 12.15885071 -17.25994873 11.42544556 C-17.23685851 7.79820265 -17.08178459 5.03868704 -15 2 C-10.46935612 -1.04663688 -5.21499549 -1.01461817 0 0 Z " fill="#000000" transform="translate(167,654)"/>
<path d="M0 0 C1.00836914 -0.02416992 1.00836914 -0.02416992 2.03710938 -0.04882812 C6.96979219 -0.05372652 6.96979219 -0.05372652 9.03746033 1.56530762 C10.61399194 3.53275474 11.39718912 5.26754394 12.27172852 7.63085938 C12.59991074 8.5053624 12.92809296 9.37986542 13.26622009 10.28086853 C13.61278152 11.22974442 13.95934296 12.1786203 14.31640625 13.15625 C14.68516373 14.14544937 15.0539212 15.13464874 15.43385315 16.15382385 C16.63073391 19.37042028 17.81577404 22.5912253 19 25.8125 C19.81369368 28.01120724 20.62798472 30.2096935 21.44287109 32.40795898 C22.654907 35.67917177 23.86589469 38.95074823 25.07312012 42.22373962 C27.29558859 48.24791915 29.54678401 54.25926338 31.84765625 60.25390625 C32.32313966 61.50118609 32.79833476 62.7485759 33.27319336 63.99609375 C34.10561678 66.17763894 34.94573322 68.35627136 35.79516602 70.53125 C37.73582173 75.66799797 39.10486463 79.80674182 38.4375 85.3125 C36.57041495 87.67747439 35.11688569 88.97280715 32.4375 90.3125 C30.62906337 90.45966542 28.81418434 90.5335887 27 90.5625 C26.03191406 90.58828125 25.06382812 90.6140625 24.06640625 90.640625 C21.4375 90.3125 21.4375 90.3125 19.58984375 88.984375 C18.4375 87.3125 18.4375 87.3125 18.4375 84.3125 C17.7775 84.3125 17.1175 84.3125 16.4375 84.3125 C15.30392725 80.98735327 14.2905248 77.7245992 13.4375 74.3125 C3.5375 74.3125 -6.3625 74.3125 -16.5625 74.3125 C-16.8925 75.9625 -17.2225 77.6125 -17.5625 79.3125 C-18.39453125 81.4453125 -18.39453125 81.4453125 -19.375 83.4375 C-19.69082031 84.10007812 -20.00664062 84.76265625 -20.33203125 85.4453125 C-21.84887541 87.74706332 -23.17081657 88.93073237 -25.5625 90.3125 C-28.25390625 90.67578125 -28.25390625 90.67578125 -31.125 90.625 C-32.07503906 90.62113281 -33.02507812 90.61726562 -34.00390625 90.61328125 C-36.5625 90.3125 -36.5625 90.3125 -39.5625 88.3125 C-40.8253527 83.7211284 -40.89109441 78.88876963 -39.5625 74.3125 C-38.9025 74.3125 -38.2425 74.3125 -37.5625 74.3125 C-37.61019531 73.59449219 -37.65789062 72.87648438 -37.70703125 72.13671875 C-37.54163447 68.90477621 -36.69328315 67.00730882 -35.25 64.125 C-32.78186667 58.95168098 -31.10011467 53.81908255 -29.5625 48.3125 C-28.90620484 46.30907266 -28.24489354 44.30718882 -27.5625 42.3125 C-26.9025 42.3125 -26.2425 42.3125 -25.5625 42.3125 C-25.624375 41.631875 -25.68625 40.95125 -25.75 40.25 C-25.56007088 37.2744438 -24.78761403 35.26640202 -23.546875 32.5859375 C-22.25656104 29.6059267 -21.20155342 26.56352547 -20.125 23.5 C-18.07875745 17.71258507 -15.98252421 11.95570056 -13.5625 6.3125 C-13.27761719 5.60351562 -12.99273437 4.89453125 -12.69921875 4.1640625 C-9.80770903 -0.54581932 -5.05670698 0.01482905 0 0 Z M-2.5625 35.3125 C-3.57066056 37.89291096 -4.5692111 40.47636944 -5.5625 43.0625 C-5.84867187 43.79210937 -6.13484375 44.52171875 -6.4296875 45.2734375 C-6.70039063 45.98242188 -6.97109375 46.69140625 -7.25 47.421875 C-7.50136719 48.07124023 -7.75273437 48.72060547 -8.01171875 49.38964844 C-8.74607727 51.62002974 -8.74607727 51.62002974 -8.5625 55.3125 C-5.91791621 56.63479189 -3.88488699 56.40927194 -0.9375 56.375 C0.06539063 56.36597656 1.06828125 56.35695313 2.1015625 56.34765625 C2.87242187 56.33605469 3.64328125 56.32445312 4.4375 56.3125 C5.44469851 53.21260028 5.44542373 51.49559855 4.29296875 48.45703125 C4.02806641 47.75255859 3.76316406 47.04808594 3.49023438 46.32226562 C3.20470703 45.59716797 2.91917969 44.87207031 2.625 44.125 C2.35107422 43.38830078 2.07714844 42.65160156 1.79492188 41.89257812 C0.50595344 37.8797063 0.50595344 37.8797063 -2.5625 35.3125 Z " fill="#000000" transform="translate(283.5625,653.6875)"/>
<path d="M0 0 C7.02055451 3.07500287 12.11568584 12.30846583 16.65429688 18.2578125 C19.23826801 21.60309879 21.94468632 24.85088284 24.63671875 28.109375 C26 30 26 30 26 32 C26.66 32 27.32 32 28 32 C30.19877012 34.4824824 31.95089644 36.9116136 33.5625 39.8125 C34.036875 40.534375 34.51125 41.25625 35 42 C35.99 42 36.98 42 38 42 C37.96447021 41.23969482 37.92894043 40.47938965 37.89233398 39.69604492 C37.7330427 36.19349822 37.58520814 32.69055356 37.4375 29.1875 C37.35338867 27.3940918 37.35338867 27.3940918 37.26757812 25.56445312 C36.48547341 6.42895774 36.48547341 6.42895774 39.65625 1.34375 C42.74714793 -0.42836481 44.9476254 -0.53259059 48.5 -0.5 C49.6240625 -0.5103125 50.748125 -0.520625 51.90625 -0.53125 C55.58207987 0.09995311 56.71924407 1.11678024 59 4 C60.47993817 6.95987633 60.15598597 9.97028345 60.16113281 13.21606445 C60.16858017 14.33099274 60.16858017 14.33099274 60.17617798 15.46844482 C60.19081169 17.93339964 60.19760406 20.39829008 60.203125 22.86328125 C60.20887605 24.57480369 60.21463379 26.28632611 60.22039795 27.99784851 C60.23091178 31.58995871 60.23675175 35.1820465 60.24023438 38.77416992 C60.24571585 43.37434556 60.26973473 47.97422472 60.29820633 52.57430744 C60.31684302 56.11137248 60.32203889 59.64836631 60.32357025 63.1854763 C60.32659566 64.88113206 60.33462046 66.5767866 60.34775543 68.27239418 C60.36483558 70.64707502 60.36293099 73.02103438 60.35644531 75.39575195 C60.3656601 76.09464035 60.37487488 76.79352875 60.3843689 77.51359558 C60.34735305 81.84632359 59.62191382 84.53770796 57 88 C54.02154492 90.06439893 51.51455384 90.27158102 47.9375 90.25 C47.08027344 90.25515625 46.22304688 90.2603125 45.33984375 90.265625 C43 90 43 90 40 88 C40 87.34 40 86.68 40 86 C39.34 86 38.68 86 38 86 C34 80.58823529 34 80.58823529 34 78 C33.34 78 32.68 78 32 78 C32 77.34 32 76.68 32 76 C31.34 76 30.68 76 30 76 C26 70.58823529 26 70.58823529 26 68 C25.34 68 24.68 68 24 68 C24 67.34 24 66.68 24 66 C23.34 66 22.68 66 22 66 C18 60.58823529 18 60.58823529 18 58 C17.34 58 16.68 58 16 58 C14.4921875 56.3203125 14.4921875 56.3203125 12.875 54.125 C12.33617187 53.40570312 11.79734375 52.68640625 11.2421875 51.9453125 C10 50 10 50 10 48 C8.68 47.34 7.36 46.68 6 46 C6.00112793 47.1552417 6.00225586 48.3104834 6.00341797 49.50073242 C5.99974015 53.79696471 5.95688958 58.09207662 5.90234375 62.38793945 C5.88420274 64.24528783 5.87661182 66.10277099 5.87988281 67.96020508 C5.88274551 70.6346831 5.84737711 73.30637696 5.8046875 75.98046875 C5.81378143 76.80773972 5.82287537 77.63501068 5.83224487 78.48735046 C5.69097071 84.12192101 5.69097071 84.12192101 3.70222473 86.64920044 C0.54059282 89.38782722 -1.88294462 90.65896883 -6.0625 90.5 C-7.28646484 90.48453125 -7.28646484 90.48453125 -8.53515625 90.46875 C-11.74021256 89.85923057 -13.45876435 89.08282685 -16 87 C-16.53334961 84.20391318 -16.72173292 81.99253764 -16.70703125 79.1875 C-16.72984917 78.00354393 -16.72984917 78.00354393 -16.75312805 76.79566956 C-16.79693623 74.19682193 -16.805205 71.59918605 -16.8125 69 C-16.83454666 67.20041545 -16.85849192 65.40085322 -16.88427734 63.60131836 C-16.94356501 58.97464146 -16.97122002 54.34838047 -16.98822021 49.72137451 C-16.99960885 47.09036296 -17.01891076 44.4595503 -17.04150391 41.82861328 C-17.08187137 37.07326279 -17.10868669 32.31799202 -17.125 27.5625 C-17.12795074 26.83442139 -17.13090149 26.10634277 -17.13394165 25.35620117 C-17.19195961 4.42213112 -17.19195961 4.42213112 -14.30078125 0.97265625 C-9.62592729 -1.00364025 -4.94982746 -0.75294994 0 0 Z " fill="#000000" transform="translate(352,654)"/>
<path d="M0 0 C0.82023148 -0.00428513 1.64046295 -0.00857025 2.48554993 -0.01298523 C4.22302326 -0.01872872 5.96052063 -0.01922864 7.69799805 -0.01489258 C10.33620208 -0.011751 12.97326426 -0.0351263 15.61132812 -0.06054688 C17.30338401 -0.06282194 18.99544289 -0.0635224 20.6875 -0.0625 C21.46800217 -0.07170975 22.24850433 -0.08091949 23.05265808 -0.09040833 C31.54385561 -0.01993557 39.93009931 3.04446219 46.3046875 8.76171875 C52.28724658 15.14911265 54.88159579 22.22246672 55.11328125 30.92578125 C54.82572305 39.36412708 52.36731125 46.72985613 46.15625 52.78125 C42.10435268 56.30078125 42.10435268 56.30078125 39.67578125 56.30078125 C47.02111222 66.66600127 47.02111222 66.66600127 54.6171875 76.84765625 C56.92956125 80.02183719 56.99289746 82.41610769 56.67578125 86.30078125 C54.8223535 88.86027671 53.73821732 89.27996923 50.67578125 90.30078125 C48.84521732 90.41932681 47.01013819 90.47595358 45.17578125 90.48828125 C44.21671875 90.50246094 43.25765625 90.51664063 42.26953125 90.53125 C39.67578125 90.30078125 39.67578125 90.30078125 36.67578125 88.30078125 C36.67578125 87.64078125 36.67578125 86.98078125 36.67578125 86.30078125 C36.01578125 86.30078125 35.35578125 86.30078125 34.67578125 86.30078125 C30.67578125 81.94784007 30.67578125 81.94784007 30.67578125 78.30078125 C30.01578125 78.30078125 29.35578125 78.30078125 28.67578125 78.30078125 C27.11331206 76.41514481 25.66600548 74.53437226 24.23828125 72.55078125 C23.84318359 72.01195312 23.44808594 71.473125 23.04101562 70.91796875 C19.72759023 66.39715539 19.72759023 66.39715539 18.390625 63.91015625 C16.24916594 61.90040424 15.3623782 62.06213508 12.48828125 62.05078125 C11.23015625 62.13328125 9.97203125 62.21578125 8.67578125 62.30078125 C8.58490234 64.01974609 8.58490234 64.01974609 8.4921875 65.7734375 C8.40771136 67.30339422 8.32306698 68.83334166 8.23828125 70.36328125 C8.19896484 71.11544922 8.15964844 71.86761719 8.11914062 72.64257812 C7.40657968 85.30423793 7.40657968 85.30423793 5.30078125 88.17578125 C2.25381994 90.285216 -0.66310957 90.51046384 -4.26171875 90.61328125 C-5.54369141 90.66935547 -5.54369141 90.66935547 -6.8515625 90.7265625 C-10.17594875 90.15411684 -11.19531504 88.87233377 -13.32421875 86.30078125 C-13.88598633 84.02563477 -13.88598633 84.02563477 -13.96875 81.4296875 C-14.00621338 80.40512451 -14.04367676 79.38056152 -14.08227539 78.32495117 C-14.1002417 77.1826001 -14.11820801 76.04024902 -14.13671875 74.86328125 C-14.16822021 73.65583252 -14.19972168 72.44838379 -14.23217773 71.2043457 C-14.70915188 48.91753558 -13.87224938 26.58031275 -13.32421875 4.30078125 C-12.66421875 4.30078125 -12.00421875 4.30078125 -11.32421875 4.30078125 C-11.32421875 3.64078125 -11.32421875 2.98078125 -11.32421875 2.30078125 C-7.51576222 -0.23818977 -4.41481452 -0.00508927 0 0 Z M7.67578125 19.30078125 C7.67578125 26.89078125 7.67578125 34.48078125 7.67578125 42.30078125 C15.63492424 44.95382891 20.94099806 44.87904231 28.67578125 42.30078125 C28.67578125 41.64078125 28.67578125 40.98078125 28.67578125 40.30078125 C29.33578125 40.30078125 29.99578125 40.30078125 30.67578125 40.30078125 C33.69411755 35.7732768 33.68312054 31.58747429 32.67578125 26.30078125 C30.73441065 22.58989909 28.54657536 20.85949029 24.67578125 19.30078125 C18.97353029 18.51201293 13.42754932 18.98623143 7.67578125 19.30078125 Z " fill="#000000" transform="translate(543.32421875,653.69921875)"/>
<path d="M0 0 C1.68609375 -0.04640625 1.68609375 -0.04640625 3.40625 -0.09375 C7.53296353 0.69824553 8.15049414 2.06300207 10.5 5.5 C11.78227359 8.05149104 12.83982546 10.67114983 13.8828125 13.328125 C14.18315399 14.07656677 14.48349548 14.82500854 14.79293823 15.59613037 C15.42392117 17.17456333 16.05064765 18.75470377 16.67333984 20.33642578 C17.61829401 22.73299246 18.57951766 25.12253729 19.54296875 27.51171875 C20.1572378 29.05429451 20.77055004 30.5972517 21.3828125 32.140625 C21.80785568 33.19579315 21.80785568 33.19579315 22.2414856 34.27227783 C24.19124126 39.26221216 25.4711713 44.2450743 26.5 49.5 C30.304599 46.48255941 31.3584282 43.50530196 32.70703125 39.02734375 C34.04787771 34.75380847 35.79738227 30.63986747 37.5 26.5 C38.16 26.5 38.82 26.5 39.5 26.5 C39.61730469 25.80777344 39.73460937 25.11554687 39.85546875 24.40234375 C41.77814957 15.74445377 45.15311968 6.84688032 51.5 0.5 C54.1796875 0.1640625 54.1796875 0.1640625 57.375 0.125 C58.94894531 0.08246094 58.94894531 0.08246094 60.5546875 0.0390625 C63.5 0.5 63.5 0.5 65.8828125 2.0859375 C67.57818533 4.61671143 68.14238857 6.25498455 67.94970703 9.30322266 C66.88362522 14.5109339 64.5438788 19.3335126 62.4375 24.1875 C61.90299141 25.44451405 61.36981995 26.70209739 60.83789062 27.96020508 C59.68753129 30.67762973 58.53097666 33.39230501 57.37060547 36.10546875 C54.36190794 43.15526977 51.42983268 50.23723713 48.48733521 57.31484985 C47.51949129 59.64066079 46.54912753 61.96540315 45.57788086 64.28979492 C44.96856101 65.74917525 44.35926664 67.20856621 43.75 68.66796875 C43.46087738 69.35953568 43.17175476 70.0511026 42.87387085 70.7636261 C40.95625093 75.36373185 39.1088534 79.9865172 37.3425293 84.6472168 C35.94355617 87.72366045 34.51993706 89.02358633 31.5 90.5 C24.07058606 91.61375694 24.07058606 91.61375694 20.875 89.34765625 C19.03933285 86.88097851 18.16137621 84.39350674 17.125 81.5 C15.5551336 77.25102027 13.91886013 73.10322292 12 69 C8.34686474 61.10414119 4.69232699 53.17029085 3.5 44.5 C2.84 44.5 2.18 44.5 1.5 44.5 C1.22736328 43.50419922 1.22736328 43.50419922 0.94921875 42.48828125 C0.69785156 41.60527344 0.44648437 40.72226562 0.1875 39.8125 C-0.05613281 38.94238281 -0.29976562 38.07226562 -0.55078125 37.17578125 C-1.55877848 34.33430758 -2.94609228 32.07816268 -4.5 29.5 C-5.41672744 27.28766643 -6.29060332 25.05718065 -7.125 22.8125 C-8.66625176 18.59254255 -8.66625176 18.59254255 -10.5 14.5 C-10.67252544 12.69272528 -10.76670538 10.87741317 -10.8125 9.0625 C-10.84988281 8.09441406 -10.88726563 7.12632812 -10.92578125 6.12890625 C-10.5 3.5 -10.5 3.5 -8.88671875 1.68359375 C-5.80225189 0.15398089 -3.43633711 0.03152603 0 0 Z " fill="#000000" transform="translate(734.5,653.5)"/>
<path d="M0 0 C1.14791519 -0.01253311 2.29583038 -0.02506622 3.47853088 -0.03797913 C4.70885544 -0.02472092 5.93917999 -0.01146271 7.20678711 0.00219727 C9.11300087 -0.00142067 9.11300087 -0.00142067 11.057724 -0.00511169 C13.74247206 -0.00413269 16.42498759 0.0066721 19.109375 0.03417969 C22.54518465 0.06829844 25.97950175 0.06222885 29.41538334 0.04351711 C32.70010468 0.03039412 35.98459804 0.04866359 39.26928711 0.06469727 C41.11781029 0.05725746 41.11781029 0.05725746 43.00367737 0.04966736 C44.1484404 0.06550369 45.29320343 0.08134003 46.47265625 0.09765625 C47.47905655 0.10385483 48.48545685 0.11005341 49.52235413 0.11643982 C52.87904836 0.7685305 54.05551887 2.00083446 56.17163086 4.63110352 C57.82475443 9.00007295 56.90306236 12.38122619 55.17163086 16.63110352 C50.79202342 20.29690315 46.57613586 20.02559281 41.15209961 19.92407227 C40.29352859 19.91982742 39.43495758 19.91558258 38.55036926 19.91120911 C35.81963172 19.89447347 33.08964374 19.85683118 30.35913086 19.81860352 C28.50302176 19.80355005 26.64690104 19.7898628 24.79077148 19.77758789 C20.25077101 19.74458674 15.71132784 19.6928401 11.17163086 19.63110352 C11.17163086 24.91110352 11.17163086 30.19110352 11.17163086 35.63110352 C14.67530273 35.66977539 14.67530273 35.66977539 18.24975586 35.70922852 C20.51696725 35.74766372 22.78395232 35.79281882 25.05102539 35.83862305 C26.6241573 35.86681305 28.19743033 35.8880375 29.77075195 35.90209961 C32.03532042 35.92355793 34.2981959 35.97021699 36.56225586 36.02172852 C37.26344543 36.02295715 37.96463501 36.02418579 38.68707275 36.02545166 C42.02093153 36.12499867 43.89840752 36.43079795 46.6159668 38.4230957 C48.53272578 41.14361803 48.73000621 43.36517326 48.57006836 46.66235352 C47.94700879 49.74100081 46.38452521 51.4832943 44.17163086 53.63110352 C41.19803637 55.11790076 38.50863907 54.74222957 35.19506836 54.72875977 C34.16719711 54.72663734 34.16719711 54.72663734 33.11856079 54.72447205 C30.92787325 54.71887026 28.73728756 54.70631758 26.54663086 54.69360352 C25.06225733 54.68858874 23.57788221 54.68402579 22.09350586 54.67993164 C18.45280996 54.66975072 14.81233455 54.65017589 11.17163086 54.63110352 C11.17163086 59.91110352 11.17163086 65.19110352 11.17163086 70.63110352 C12.85119873 70.61539307 12.85119873 70.61539307 14.56469727 70.59936523 C18.73556293 70.56305053 22.90641473 70.54016138 27.07739258 70.52124023 C28.87949985 70.51120875 30.68159096 70.49758037 32.48364258 70.48022461 C35.08020021 70.45585052 37.67654183 70.44459174 40.27319336 70.43579102 C41.07342926 70.42546844 41.87366516 70.41514587 42.69815063 70.4045105 C47.23953482 70.40360822 50.92631775 70.80583977 55.17163086 72.63110352 C57.50876635 75.27308277 57.16585264 76.99513107 57.10913086 80.56860352 C56.4428988 84.87101779 54.61005197 86.92948693 51.17163086 89.63110352 C48.16844037 90.63216701 46.09482557 90.78088364 42.95336914 90.82397461 C41.88861359 90.84003754 40.82385803 90.85610046 39.72683716 90.87265015 C34.86745879 90.91711916 30.00821577 90.95814658 25.14868164 90.98120117 C22.58413633 90.99778018 20.01963759 91.02509528 17.45532227 91.06323242 C13.75895199 91.11791949 10.06366335 91.13986189 6.36694336 91.15454102 C5.22097687 91.17721039 4.07501038 91.19987976 2.89431763 91.22323608 C1.82325775 91.22038605 0.75219788 91.21753601 -0.35131836 91.21459961 C-1.29047089 91.22268646 -2.22962341 91.23077332 -3.19723511 91.23910522 C-7.04993558 90.34882429 -8.48510361 88.77913052 -10.82836914 85.63110352 C-11.32405625 82.81684919 -11.51468691 80.60666921 -11.4753418 77.79907227 C-11.48410339 77.02608795 -11.49286499 76.25310364 -11.50189209 75.45669556 C-11.5238388 72.91008819 -11.50935156 70.36522749 -11.49243164 67.81860352 C-11.49580117 66.04410469 -11.50065493 64.26960812 -11.50692749 62.49511719 C-11.51429236 58.77947984 -11.50360607 55.06444425 -11.48022461 51.34887695 C-11.45173664 46.59036868 -11.46814274 41.8332704 -11.49808693 37.07481384 C-11.51617056 33.41155406 -11.51039708 29.74862759 -11.49744797 26.08535767 C-11.49411688 24.33110385 -11.4981906 22.57681958 -11.50984573 20.82260132 C-11.52257265 18.36863273 -11.50315504 15.91693456 -11.4753418 13.46313477 C-11.48546295 12.74090729 -11.49558411 12.01867981 -11.50601196 11.27456665 C-11.42746411 7.52643133 -10.89761028 5.72496845 -8.65220642 2.68104553 C-5.42653217 0.33939319 -3.93965372 0.00376194 0 0 Z " fill="#000000" transform="translate(828.828369140625,653.368896484375)"/>
<path d="M0 0 C2.51447583 2.3410637 3.00551971 4.02129031 3.875 7.375 C4.0590131 12.71138001 2.37322043 15.46522422 -1.125 19.375 C-5.25408881 21.70883281 -8.29876279 21.28067088 -13 21 C-13.33 23.97 -13.66 26.94 -14 30 C-16.97 30.495 -16.97 30.495 -20 31 C-21.63789602 27.39605947 -22.25585235 24.57168688 -22.265625 20.62109375 C-22.26820313 19.61755859 -22.27078125 18.61402344 -22.2734375 17.58007812 C-22.26570313 16.54302734 -22.25796875 15.50597656 -22.25 14.4375 C-22.25773437 13.39658203 -22.26546875 12.35566406 -22.2734375 11.28320312 C-22.27085937 10.28095703 -22.26828125 9.27871094 -22.265625 8.24609375 C-22.26336914 7.33529053 -22.26111328 6.4244873 -22.25878906 5.48608398 C-21.98370839 2.84349298 -21.41674481 1.23426502 -20 -1 C-14.23336886 -4.66967436 -5.87736033 -2.65880586 0 0 Z M-13 5 C-13.77811718 8.81984796 -14.24386556 11.26840331 -13 15 C-10.69 15 -8.38 15 -6 15 C-6 14.34 -6 13.68 -6 13 C-5.34 13 -4.68 13 -4 13 C-4 11.02 -4 9.04 -4 7 C-4.66 7 -5.32 7 -6 7 C-6 6.34 -6 5.68 -6 5 C-9.58327753 3.99782936 -9.58327753 3.99782936 -13 5 Z " fill="#000000" transform="translate(344,767)"/>
<path d="M0 0 C0.71994141 -0.00322266 1.43988281 -0.00644531 2.18164062 -0.00976562 C5.95349709 0.02875844 7.73089072 0.17476048 10.9375 2.3125 C10.0625 7.1875 10.0625 7.1875 8.9375 8.3125 C6.75110547 8.38508946 4.56249611 8.39623783 2.375 8.375 C0.57869141 8.36146484 0.57869141 8.36146484 -1.25390625 8.34765625 C-2.18074219 8.33605469 -3.10757812 8.32445312 -4.0625 8.3125 C-4.0625 10.2925 -4.0625 12.2725 -4.0625 14.3125 C-0.7625 14.3125 2.5375 14.3125 5.9375 14.3125 C6.9375 18.3125 6.9375 18.3125 5.9375 20.3125 C3.65234375 20.7265625 3.65234375 20.7265625 0.875 20.9375 C-0.04410156 21.01226563 -0.96320313 21.08703125 -1.91015625 21.1640625 C-2.97556641 21.23753906 -2.97556641 21.23753906 -4.0625 21.3125 C-4.0625 22.9625 -4.0625 24.6125 -4.0625 26.3125 C-3.06347656 26.30089844 -2.06445312 26.28929687 -1.03515625 26.27734375 C0.25519531 26.26832031 1.54554688 26.25929688 2.875 26.25 C4.16277344 26.23839844 5.45054687 26.22679687 6.77734375 26.21484375 C9.9375 26.3125 9.9375 26.3125 10.9375 27.3125 C10.97830783 29.31208364 10.98004356 31.31295254 10.9375 33.3125 C8.37511495 33.48111758 5.81261576 33.64745773 3.25 33.8125 C2.52876953 33.86019531 1.80753906 33.90789063 1.06445312 33.95703125 C-7.48650947 34.50366813 -7.48650947 34.50366813 -10.0625 34.3125 C-13.42088479 30.95411521 -12.39249103 26.53929528 -12.43359375 21.97460938 C-12.43343262 21.30196045 -12.43327148 20.62931152 -12.43310547 19.9362793 C-12.43747717 17.88571021 -12.47378424 15.83729711 -12.51171875 13.78710938 C-12.51558594 12.49740234 -12.51945312 11.20769531 -12.5234375 9.87890625 C-12.53165527 8.69240479 -12.53987305 7.50590332 -12.54833984 6.28344727 C-12.0625 3.3125 -12.0625 3.3125 -10.27026367 1.42480469 C-6.93441146 -0.25584805 -3.64566002 -0.08203555 0 0 Z " fill="#000000" transform="translate(380.0625,763.6875)"/>
<path d="M0 0 C0.81082031 0.00128906 1.62164062 0.00257813 2.45703125 0.00390625 C8.4521344 0.0930896 8.4521344 0.0930896 11.875 2.375 C12.0625 5 12.0625 5 11.875 7.375 C7.42 7.87 7.42 7.87 2.875 8.375 C2.875 16.625 2.875 24.875 2.875 33.375 C-0.59 33.87 -0.59 33.87 -4.125 34.375 C-4.125 26.455 -4.125 18.535 -4.125 10.375 C-4.785 10.375 -5.445 10.375 -6.125 10.375 C-6.125 9.715 -6.125 9.055 -6.125 8.375 C-8.105 8.375 -10.085 8.375 -12.125 8.375 C-12.785 7.055 -13.445 5.735 -14.125 4.375 C-9.64760946 -0.21115307 -6.03903948 -0.18417616 0 0 Z " fill="#000000" transform="translate(426.125,763.625)"/>
<path d="M0 0 C3.32254476 0.72846374 4.65038927 1.48077668 6.56152344 4.3190918 C6.98981445 5.26953369 7.41810547 6.21997559 7.859375 7.19921875 C8.33503906 8.24400391 8.81070312 9.28878906 9.30078125 10.36523438 C9.77902344 11.46158203 10.25726563 12.55792969 10.75 13.6875 C11.24371094 14.76451172 11.73742187 15.84152344 12.24609375 16.95117188 C14.65033692 22.32284394 16.62869133 27.10125544 17 33 C14.8125 33.8125 14.8125 33.8125 12 34 C9.1875 31.6875 9.1875 31.6875 7 29 C7 28.34 7 27.68 7 27 C5.7625 27.2475 5.7625 27.2475 4.5 27.5 C0.58727683 28.05896045 -3.05183173 28.06807187 -7 28 C-7.66 29.98 -8.32 31.96 -9 34 C-10.98 34 -12.96 34 -15 34 C-15.33707111 29.16864744 -14.53407461 27.03574846 -12 23 C-10.8878463 20.03425681 -9.92995754 17.02730858 -9 14 C-8.34 14 -7.68 14 -7 14 C-6.86335938 13.42507813 -6.72671875 12.85015625 -6.5859375 12.2578125 C-6.02206438 10.08502142 -5.37322864 7.99095841 -4.625 5.875 C-4.39039063 5.19179688 -4.15578125 4.50859375 -3.9140625 3.8046875 C-3 2 -3 2 0 0 Z M0 12 C-1.485 15.96 -1.485 15.96 -3 20 C-1.02 20 0.96 20 3 20 C2.55296014 15.52116304 2.55296014 15.52116304 0 12 Z " fill="#000000" transform="translate(469,764)"/>
<path d="M0 0 C2.5625 1.625 2.5625 1.625 4 3 C3.03432113 5.41419718 2.24128309 6.80863755 0.1875 8.4375 C-2 9 -2 9 -4.4375 7.5625 C-5.283125 7.046875 -6.12875 6.53125 -7 6 C-9.84989557 6.13570931 -11.3788478 6.510562 -13.62109375 8.27734375 C-15.81170038 11.01405062 -15.47753321 13.45268308 -15.33984375 16.83984375 C-15.11199344 19.16749173 -15.11199344 19.16749173 -13.5 21.5 C-9.9787637 23.61274178 -7.08577216 23.72761519 -3 24 C-2.67 22.35 -2.34 20.7 -2 19 C-3.32 18.67 -4.64 18.34 -6 18 C-7.125 14.25 -7.125 14.25 -6 12 C-4.20866022 11.94608007 -2.41686101 11.90724429 -0.625 11.875 C0.37273438 11.85179687 1.37046875 11.82859375 2.3984375 11.8046875 C5 12 5 12 7 14 C7.5009407 19.20978323 6.91174073 22.63238891 4 27 C-0.17400145 30.50995576 -3.55567416 31.80897102 -9 32 C-14.56970562 31.03970593 -17.38444201 29.31858315 -21 25 C-21.598125 24.29875 -22.19625 23.5975 -22.8125 22.875 C-24.69392334 18.31997507 -24.67639856 13.85115957 -24 9 C-22.125 5.8125 -22.125 5.8125 -20 4 C-19.34 4 -18.68 4 -18 4 C-18 3.34 -18 2.68 -18 2 C-11.54780298 -1.69132785 -7.03423316 -2.82776173 0 0 Z " fill="#000000" transform="translate(530,766)"/>
<path d="M0 0 C2.58989007 1.14991119 3.01626758 2.18247262 4.203125 4.7421875 C4.61433594 5.62777344 5.02554688 6.51335938 5.44921875 7.42578125 C5.94550781 8.56144531 6.44179688 9.69710937 6.953125 10.8671875 C7.2845752 11.6214502 7.61602539 12.37571289 7.95751953 13.15283203 C9.07113931 15.69888814 10.17135213 18.25025934 11.265625 20.8046875 C11.6275293 21.64563965 11.98943359 22.4865918 12.36230469 23.35302734 C12.6977832 24.15047363 13.03326172 24.94791992 13.37890625 25.76953125 C13.68223877 26.48616943 13.98557129 27.20280762 14.2980957 27.94116211 C14.953125 29.8671875 14.953125 29.8671875 14.953125 32.8671875 C12.265625 33.1796875 12.265625 33.1796875 8.953125 32.8671875 C8.2725 32.0215625 7.591875 31.1759375 6.890625 30.3046875 C3.18936604 27.23343007 1.82475472 27.66941276 -2.859375 28.0546875 C-4.92506555 28.30000258 -6.98904722 28.56288207 -9.046875 28.8671875 C-10.036875 31.3421875 -10.036875 31.3421875 -11.046875 33.8671875 C-13.026875 33.8671875 -15.006875 33.8671875 -17.046875 33.8671875 C-17.29059944 29.37475327 -16.73148468 26.50997158 -14.734375 22.4921875 C-12.57562659 18.00394222 -10.74173607 13.54823237 -9.046875 8.8671875 C-8.38620781 7.19813355 -7.72249248 5.5302459 -7.046875 3.8671875 C-6.386875 3.8671875 -5.726875 3.8671875 -5.046875 3.8671875 C-5.046875 3.2071875 -5.046875 2.5471875 -5.046875 1.8671875 C-2.046875 -0.1328125 -2.046875 -0.1328125 0 0 Z M-3.046875 11.8671875 C-3.706875 14.5071875 -4.366875 17.1471875 -5.046875 19.8671875 C-3.066875 19.8671875 -1.086875 19.8671875 0.953125 19.8671875 C0.45480776 16.17963993 -0.14755143 14.26228088 -3.046875 11.8671875 Z " fill="#000000" transform="translate(647.046875,764.1328125)"/>
<path d="M0 0 C4.26343526 0.30453109 6.1871991 3.03024398 9 6 C10.62781995 7.91767024 12.23252733 9.85522043 13.8125 11.8125 C14.60269531 12.78832031 15.39289062 13.76414062 16.20703125 14.76953125 C16.79871094 15.50558594 17.39039063 16.24164062 18 17 C20.17769714 14.82230286 19.32272265 9.8324206 19.42578125 6.8828125 C20 4 20 4 21.71875 2.140625 C27.41383433 -0.70691716 34.35312057 0.56136127 40.1875 2.5 C41.46481967 2.98318923 42.73856633 3.47673863 44 4 C44 4.66 44 5.32 44 6 C44.66 6 45.32 6 46 6 C48.40358018 10.90730954 49.68495325 14.42252351 49 20 C47.15628543 25.27342018 44.78416788 28.93322572 40 32 C36.52612221 33.15795926 33.18534715 33.46517405 29.5625 33.75 C28.55993164 33.85248047 28.55993164 33.85248047 27.53710938 33.95703125 C24.38952889 34.20035264 22.35079787 34.18398877 19.52734375 32.703125 C18 31 18 31 18 28 C17.34 28 16.68 28 16 28 C14.6328125 26.390625 14.6328125 26.390625 13.125 24.25 C10.96969788 21.20323785 8.69286615 18.58794929 6 16 C5.93941406 17.21558594 5.87882813 18.43117188 5.81640625 19.68359375 C5.73201668 21.26824228 5.6473679 22.85287702 5.5625 24.4375 C5.50352539 25.64116211 5.50352539 25.64116211 5.44335938 26.86914062 C5.11328125 32.88671875 5.11328125 32.88671875 4 34 C2.00041636 34.04080783 -0.00045254 34.04254356 -2 34 C-2.88486657 27.90503909 -3.18290975 21.96802073 -3.1875 15.8125 C-3.19974609 14.93658203 -3.21199219 14.06066406 -3.22460938 13.15820312 C-3.23479593 8.67951591 -3.17917835 5.04241634 -1 1 C-0.67 0.67 -0.34 0.34 0 0 Z M28 7 C26.98194396 10.05416813 26.86624485 12.17936961 26.875 15.375 C26.87242187 16.31085937 26.86984375 17.24671875 26.8671875 18.2109375 C26.99745212 20.94649453 27.23071523 23.36969098 28 26 C30.47636012 27.37466625 30.47636012 27.37466625 33 28 C36.97244008 25.1684696 39.63434624 23.22601554 41.0625 18.4375 C40.99985531 14.99204221 40.70122926 12.9771512 39 10 C36.09907498 8.06604999 35.10325263 7.69868059 31.8125 7.375 C30.554375 7.25125 29.29625 7.1275 28 7 Z " fill="#000000" transform="translate(560,764)"/>
<path d="M0 0 C5.44411391 1.99174899 7.93122529 5.08768579 11.2890625 9.74609375 C13.04409643 12.0580905 14.83800058 14.06302501 17 16 C17.66 16 18.32 16 19 16 C18.94779297 14.64455078 18.94779297 14.64455078 18.89453125 13.26171875 C18.86746094 12.08222656 18.84039063 10.90273438 18.8125 9.6875 C18.77769531 8.51574219 18.74289062 7.34398437 18.70703125 6.13671875 C19 3 19 3 20.51171875 1.08203125 C21.00285156 0.72496094 21.49398437 0.36789062 22 0 C23.32 0.66 24.64 1.32 26 2 C26 12.23 26 22.46 26 33 C23.03 33.495 23.03 33.495 20 34 C16.31485002 31.1523841 14.39150143 28.42750456 13 24 C12.34 24 11.68 24 11 24 C9.4921875 22.25 9.4921875 22.25 7.875 20 C7.33617187 19.2575 6.79734375 18.515 6.2421875 17.75 C5.62730469 16.88375 5.62730469 16.88375 5 16 C4.93941406 17.21558594 4.87882813 18.43117188 4.81640625 19.68359375 C4.73201668 21.26824228 4.6473679 22.85287702 4.5625 24.4375 C4.50352539 25.64116211 4.50352539 25.64116211 4.44335938 26.86914062 C4.11328125 32.88671875 4.11328125 32.88671875 3 34 C0.5 34.125 0.5 34.125 -2 34 C-4.67224479 31.32775521 -3.22997917 23.6410525 -3.24023438 19.78979492 C-3.24994529 17.57497685 -3.2809579 15.36108459 -3.3125 13.14648438 C-3.3190293 11.7447972 -3.32428006 10.34310336 -3.328125 8.94140625 C-3.3374707 7.65951416 -3.34681641 6.37762207 -3.35644531 5.05688477 C-3.23881836 4.04811279 -3.12119141 3.03934082 -3 2 C-2.01 1.34 -1.02 0.68 0 0 Z " fill="#000000" transform="translate(683,764)"/>
<path d="M0 0 C0.85013672 -0.01224609 1.70027344 -0.02449219 2.57617188 -0.03710938 C3.80883789 -0.04000977 3.80883789 -0.04000977 5.06640625 -0.04296875 C5.80963135 -0.04707764 6.55285645 -0.05118652 7.31860352 -0.05541992 C9.72244353 0.22016722 11.34893314 0.99542529 13.4375 2.1875 C12.29760742 4.16308594 12.29760742 4.16308594 10.4375 6.1875 C7.80200195 6.64160156 7.80200195 6.64160156 4.67578125 6.578125 C3.55751953 6.56523438 2.43925781 6.55234375 1.28710938 6.5390625 C0.11986328 6.50554688 -1.04738281 6.47203125 -2.25 6.4375 C-3.42884766 6.41945313 -4.60769531 6.40140625 -5.82226562 6.3828125 C-8.73648926 6.33561859 -11.64909031 6.26979077 -14.5625 6.1875 C-14.8925 5.1975 -15.2225 4.2075 -15.5625 3.1875 C-15.2325 2.5275 -14.9025 1.8675 -14.5625 1.1875 C-9.87227949 -0.27644557 -4.86600351 0.00370602 0 0 Z " fill="#000000" transform="translate(282.5625,776.8125)"/>
<path d="M0 0 C1.56041016 -0.00386719 1.56041016 -0.00386719 3.15234375 -0.0078125 C5.63915971 0.10567977 7.69342407 0.40571429 10.0625 1.125 C9.1875 5 9.1875 5 8.0625 6.125 C5.40247189 6.27817991 2.7862812 6.35659875 0.125 6.375 C-0.61685547 6.395625 -1.35871094 6.41625 -2.12304688 6.4375 C-4.27734375 6.453125 -4.27734375 6.453125 -7.9375 6.125 C-8.5975 5.135 -9.2575 4.145 -9.9375 3.125 C-7.98099231 -0.78801538 -3.87661866 -0.00958373 0 0 Z " fill="#000000" transform="translate(745.9375,776.875)"/>
</svg>
